<svg width="300" height="60" viewBox="0 0 300 60" fill="none" xmlns="http://www.w3.org/2000/svg">
<rect x="2" y="2" width="270" height="56" transform="translate(26)" stroke="#333333" stroke-width="4"/>
<path d="M34.7388 32.144C33.4788 32.144 32.3388 31.868 31.3188 31.316C30.3108 30.752 29.5188 29.984 28.9428 29.012C28.3668 28.028 28.0788 26.924 28.0788 25.7C28.0788 24.476 28.3668 23.378 28.9428 22.406C29.5188 21.422 30.3168 20.654 31.3368 20.102C32.3568 19.538 33.4968 19.256 34.7568 19.256C35.7408 19.256 36.6408 19.424 37.4568 19.76C38.2728 20.084 38.9688 20.57 39.5448 21.218L38.3748 22.352C37.4268 21.356 36.2448 20.858 34.8288 20.858C33.8928 20.858 33.0468 21.068 32.2908 21.488C31.5348 21.908 30.9408 22.49 30.5088 23.234C30.0888 23.966 29.8788 24.788 29.8788 25.7C29.8788 26.612 30.0888 27.44 30.5088 28.184C30.9408 28.916 31.5348 29.492 32.2908 29.912C33.0468 30.332 33.8928 30.542 34.8288 30.542C36.2328 30.542 37.4148 30.038 38.3748 29.03L39.5448 30.164C38.9688 30.812 38.2668 31.304 37.4388 31.64C36.6228 31.976 35.7228 32.144 34.7388 32.144ZM47.537 32.144C46.265 32.144 45.119 31.868 44.099 31.316C43.079 30.752 42.275 29.978 41.687 28.994C41.111 28.01 40.823 26.912 40.823 25.7C40.823 24.488 41.111 23.39 41.687 22.406C42.275 21.422 43.079 20.654 44.099 20.102C45.119 19.538 46.265 19.256 47.537 19.256C48.797 19.256 49.937 19.538 50.957 20.102C51.977 20.654 52.775 21.422 53.351 22.406C53.927 23.378 54.215 24.476 54.215 25.7C54.215 26.924 53.927 28.028 53.351 29.012C52.775 29.984 51.977 30.752 50.957 31.316C49.937 31.868 48.797 32.144 47.537 32.144ZM47.537 30.542C48.461 30.542 49.289 30.332 50.021 29.912C50.765 29.492 51.347 28.916 51.767 28.184C52.199 27.44 52.415 26.612 52.415 25.7C52.415 24.788 52.199 23.966 51.767 23.234C51.347 22.49 50.765 21.908 50.021 21.488C49.289 21.068 48.461 20.858 47.537 20.858C46.613 20.858 45.773 21.068 45.017 21.488C44.273 21.908 43.685 22.49 43.253 23.234C42.833 23.966 42.623 24.788 42.623 25.7C42.623 26.612 42.833 27.44 43.253 28.184C43.685 28.916 44.273 29.492 45.017 29.912C45.773 30.332 46.613 30.542 47.537 30.542ZM68.6482 32L68.6302 22.82L64.0762 30.47H63.2482L58.6942 22.874V32H56.9662V19.4H58.4422L63.6982 28.256L68.8822 19.4H70.3582L70.3762 32H68.6482ZM79.0716 19.4C80.7036 19.4 81.9876 19.79 82.9236 20.57C83.8596 21.35 84.3276 22.424 84.3276 23.792C84.3276 25.16 83.8596 26.234 82.9236 27.014C81.9876 27.794 80.7036 28.184 79.0716 28.184H75.9576V32H74.1576V19.4H79.0716ZM79.0176 26.618C80.1576 26.618 81.0276 26.378 81.6276 25.898C82.2276 25.406 82.5276 24.704 82.5276 23.792C82.5276 22.88 82.2276 22.184 81.6276 21.704C81.0276 21.212 80.1576 20.966 79.0176 20.966H75.9576V26.618H79.0176ZM95.396 32L92.678 28.13C92.342 28.154 92.078 28.166 91.886 28.166H88.772V32H86.972V19.4H91.886C93.518 19.4 94.802 19.79 95.738 20.57C96.674 21.35 97.142 22.424 97.142 23.792C97.142 24.764 96.902 25.592 96.422 26.276C95.942 26.96 95.258 27.458 94.37 27.77L97.358 32H95.396ZM91.832 26.636C92.972 26.636 93.842 26.39 94.442 25.898C95.042 25.406 95.342 24.704 95.342 23.792C95.342 22.88 95.042 22.184 94.442 21.704C93.842 21.212 92.972 20.966 91.832 20.966H88.772V26.636H91.832ZM108.078 28.85H101.382L99.9962 32H98.1422L103.848 19.4H105.63L111.354 32H109.464L108.078 28.85ZM107.448 27.41L104.73 21.236L102.012 27.41H107.448ZM121.658 32L118.94 28.13C118.604 28.154 118.34 28.166 118.148 28.166H115.034V32H113.234V19.4H118.148C119.78 19.4 121.064 19.79 122 20.57C122.936 21.35 123.404 22.424 123.404 23.792C123.404 24.764 123.164 25.592 122.684 26.276C122.204 26.96 121.52 27.458 120.632 27.77L123.62 32H121.658ZM118.094 26.636C119.234 26.636 120.104 26.39 120.704 25.898C121.304 25.406 121.604 24.704 121.604 23.792C121.604 22.88 121.304 22.184 120.704 21.704C120.104 21.212 119.234 20.966 118.094 20.966H115.034V26.636H118.094ZM131.014 19.4H133.93V32H131.014V19.4ZM148.476 19.4V32H146.082L139.8 24.35V32H136.92V19.4H139.332L145.596 27.05V19.4H148.476ZM159.971 25.502H162.635V30.614C161.951 31.13 161.159 31.526 160.259 31.802C159.359 32.078 158.453 32.216 157.541 32.216C156.233 32.216 155.057 31.94 154.013 31.388C152.969 30.824 152.147 30.05 151.547 29.066C150.959 28.07 150.665 26.948 150.665 25.7C150.665 24.452 150.959 23.336 151.547 22.352C152.147 21.356 152.975 20.582 154.031 20.03C155.087 19.466 156.275 19.184 157.595 19.184C158.699 19.184 159.701 19.37 160.601 19.742C161.501 20.114 162.257 20.654 162.869 21.362L160.997 23.09C160.097 22.142 159.011 21.668 157.739 21.668C156.935 21.668 156.221 21.836 155.597 22.172C154.973 22.508 154.487 22.982 154.139 23.594C153.791 24.206 153.617 24.908 153.617 25.7C153.617 26.48 153.791 27.176 154.139 27.788C154.487 28.4 154.967 28.88 155.579 29.228C156.203 29.564 156.911 29.732 157.703 29.732C158.543 29.732 159.299 29.552 159.971 29.192V25.502ZM173.372 32L170.942 28.49H170.798H168.26V32H165.344V19.4H170.798C171.914 19.4 172.88 19.586 173.696 19.958C174.524 20.33 175.16 20.858 175.604 21.542C176.048 22.226 176.27 23.036 176.27 23.972C176.27 24.908 176.042 25.718 175.586 26.402C175.142 27.074 174.506 27.59 173.678 27.95L176.504 32H173.372ZM173.318 23.972C173.318 23.264 173.09 22.724 172.634 22.352C172.178 21.968 171.512 21.776 170.636 21.776H168.26V26.168H170.636C171.512 26.168 172.178 25.976 172.634 25.592C173.09 25.208 173.318 24.668 173.318 23.972ZM188.336 29.66V32H178.58V19.4H188.102V21.74H181.478V24.476H187.328V26.744H181.478V29.66H188.336ZM194.796 32.216C193.8 32.216 192.834 32.084 191.898 31.82C190.974 31.544 190.23 31.19 189.666 30.758L190.656 28.562C191.196 28.958 191.838 29.276 192.582 29.516C193.326 29.756 194.07 29.876 194.814 29.876C195.642 29.876 196.254 29.756 196.65 29.516C197.046 29.264 197.244 28.934 197.244 28.526C197.244 28.226 197.124 27.98 196.884 27.788C196.656 27.584 196.356 27.422 195.984 27.302C195.624 27.182 195.132 27.05 194.508 26.906C193.548 26.678 192.762 26.45 192.15 26.222C191.538 25.994 191.01 25.628 190.566 25.124C190.134 24.62 189.918 23.948 189.918 23.108C189.918 22.376 190.116 21.716 190.512 21.128C190.908 20.528 191.502 20.054 192.294 19.706C193.098 19.358 194.076 19.184 195.228 19.184C196.032 19.184 196.818 19.28 197.586 19.472C198.354 19.664 199.026 19.94 199.602 20.3L198.702 22.514C197.538 21.854 196.374 21.524 195.21 21.524C194.394 21.524 193.788 21.656 193.392 21.92C193.008 22.184 192.816 22.532 192.816 22.964C192.816 23.396 193.038 23.72 193.482 23.936C193.938 24.14 194.628 24.344 195.552 24.548C196.512 24.776 197.298 25.004 197.91 25.232C198.522 25.46 199.044 25.82 199.476 26.312C199.92 26.804 200.142 27.47 200.142 28.31C200.142 29.03 199.938 29.69 199.53 30.29C199.134 30.878 198.534 31.346 197.73 31.694C196.926 32.042 195.948 32.216 194.796 32.216ZM206.275 32.216C205.279 32.216 204.313 32.084 203.377 31.82C202.453 31.544 201.709 31.19 201.145 30.758L202.135 28.562C202.675 28.958 203.317 29.276 204.061 29.516C204.805 29.756 205.549 29.876 206.293 29.876C207.121 29.876 207.733 29.756 208.129 29.516C208.525 29.264 208.723 28.934 208.723 28.526C208.723 28.226 208.603 27.98 208.363 27.788C208.135 27.584 207.835 27.422 207.463 27.302C207.103 27.182 206.611 27.05 205.987 26.906C205.027 26.678 204.241 26.45 203.629 26.222C203.017 25.994 202.489 25.628 202.045 25.124C201.613 24.62 201.397 23.948 201.397 23.108C201.397 22.376 201.595 21.716 201.991 21.128C202.387 20.528 202.981 20.054 203.773 19.706C204.577 19.358 205.555 19.184 206.707 19.184C207.511 19.184 208.297 19.28 209.065 19.472C209.833 19.664 210.505 19.94 211.081 20.3L210.181 22.514C209.017 21.854 207.853 21.524 206.689 21.524C205.873 21.524 205.267 21.656 204.871 21.92C204.487 22.184 204.295 22.532 204.295 22.964C204.295 23.396 204.517 23.72 204.961 23.936C205.417 24.14 206.107 24.344 207.031 24.548C207.991 24.776 208.777 25.004 209.389 25.232C210.001 25.46 210.523 25.82 210.955 26.312C211.399 26.804 211.621 27.47 211.621 28.31C211.621 29.03 211.417 29.69 211.009 30.29C210.613 30.878 210.013 31.346 209.209 31.694C208.405 32.042 207.427 32.216 206.275 32.216ZM219.715 32.216C218.407 32.216 217.225 31.934 216.169 31.37C215.125 30.806 214.303 30.032 213.703 29.048C213.115 28.052 212.821 26.936 212.821 25.7C212.821 24.464 213.115 23.354 213.703 22.37C214.303 21.374 215.125 20.594 216.169 20.03C217.225 19.466 218.407 19.184 219.715 19.184C221.023 19.184 222.199 19.466 223.243 20.03C224.287 20.594 225.109 21.374 225.709 22.37C226.309 23.354 226.609 24.464 226.609 25.7C226.609 26.936 226.309 28.052 225.709 29.048C225.109 30.032 224.287 30.806 223.243 31.37C222.199 31.934 221.023 32.216 219.715 32.216ZM219.715 29.732C220.459 29.732 221.131 29.564 221.731 29.228C222.331 28.88 222.799 28.4 223.135 27.788C223.483 27.176 223.657 26.48 223.657 25.7C223.657 24.92 223.483 24.224 223.135 23.612C222.799 23 222.331 22.526 221.731 22.19C221.131 21.842 220.459 21.668 219.715 21.668C218.971 21.668 218.299 21.842 217.699 22.19C217.099 22.526 216.625 23 216.277 23.612C215.941 24.224 215.773 24.92 215.773 25.7C215.773 26.48 215.941 27.176 216.277 27.788C216.625 28.4 217.099 28.88 217.699 29.228C218.299 29.564 218.971 29.732 219.715 29.732ZM232.941 32.216C231.945 32.216 230.979 32.084 230.043 31.82C229.119 31.544 228.375 31.19 227.811 30.758L228.801 28.562C229.341 28.958 229.983 29.276 230.727 29.516C231.471 29.756 232.215 29.876 232.959 29.876C233.787 29.876 234.399 29.756 234.795 29.516C235.191 29.264 235.389 28.934 235.389 28.526C235.389 28.226 235.269 27.98 235.029 27.788C234.801 27.584 234.501 27.422 234.129 27.302C233.769 27.182 233.277 27.05 232.653 26.906C231.693 26.678 230.907 26.45 230.295 26.222C229.683 25.994 229.155 25.628 228.711 25.124C228.279 24.62 228.063 23.948 228.063 23.108C228.063 22.376 228.261 21.716 228.657 21.128C229.053 20.528 229.647 20.054 230.439 19.706C231.243 19.358 232.221 19.184 233.373 19.184C234.177 19.184 234.963 19.28 235.731 19.472C236.499 19.664 237.171 19.94 237.747 20.3L236.847 22.514C235.683 21.854 234.519 21.524 233.355 21.524C232.539 21.524 231.933 21.656 231.537 21.92C231.153 22.184 230.961 22.532 230.961 22.964C230.961 23.396 231.183 23.72 231.627 23.936C232.083 24.14 232.773 24.344 233.697 24.548C234.657 24.776 235.443 25.004 236.055 25.232C236.667 25.46 237.189 25.82 237.621 26.312C238.065 26.804 238.287 27.47 238.287 28.31C238.287 29.03 238.083 29.69 237.675 30.29C237.279 30.878 236.679 31.346 235.875 31.694C235.071 32.042 234.093 32.216 232.941 32.216Z" transform="translate(30 4)" fill="#333333"/>
<rect x="2" y="2" width="26" height="56" stroke="#333333" stroke-width="4"/>
<path fill-rule="evenodd" clip-rule="evenodd" d="M22 4H0V0H22V4Z" transform="translate(4 8)" fill="#333333"/>
<path fill-rule="evenodd" clip-rule="evenodd" d="M22 4H0V0H22V4Z" transform="translate(4 16)" fill="#333333"/>
<path fill-rule="evenodd" clip-rule="evenodd" d="M22 4H0V0H22V4Z" transform="translate(4 24)" fill="#333333"/>
<path fill-rule="evenodd" clip-rule="evenodd" d="M22 4H0V0H22V4Z" transform="translate(4 32)" fill="#333333"/>
<path fill-rule="evenodd" clip-rule="evenodd" d="M22 4H0V0H22V4Z" transform="translate(4 40)" fill="#333333"/>
<path fill-rule="evenodd" clip-rule="evenodd" d="M22 4H0V0H22V4Z" transform="translate(4 48)" fill="#333333"/>
</svg>
