<svg width="358" height="60" viewBox="0 0 358 60" fill="none" xmlns="http://www.w3.org/2000/svg">
<rect x="2" y="2" width="290" height="56" transform="translate(62)" stroke="#333333" stroke-width="4"/>
<path d="M27.9549 21.74V25.07H33.7869V27.41H27.9549V32H25.0389V19.4H34.5609V21.74H27.9549ZM44.3057 29.3H38.4557L37.3397 32H34.3517L39.9677 19.4H42.8477L48.4817 32H45.4217L44.3057 29.3ZM43.3877 27.086L41.3897 22.262L39.3917 27.086H43.3877ZM59.9949 29.624V32H48.9789V30.11L55.8909 21.776H49.1229V19.4H59.7249V21.29L52.8309 29.624H59.9949ZM71.6211 29.66V32H61.8651V19.4H71.3871V21.74H64.7631V24.476H70.6131V26.744H64.7631V29.66H71.6211ZM81.9693 32L79.5393 28.49H79.3953H76.8573V32H73.9413V19.4H79.3953C80.5113 19.4 81.4773 19.586 82.2933 19.958C83.1213 20.33 83.7573 20.858 84.2013 21.542C84.6453 22.226 84.8673 23.036 84.8673 23.972C84.8673 24.908 84.6393 25.718 84.1833 26.402C83.7393 27.074 83.1033 27.59 82.2753 27.95L85.1013 32H81.9693ZM81.9153 23.972C81.9153 23.264 81.6873 22.724 81.2313 22.352C80.7753 21.968 80.1093 21.776 79.2333 21.776H76.8573V26.168H79.2333C80.1093 26.168 80.7753 25.976 81.2313 25.592C81.6873 25.208 81.9153 24.668 81.9153 23.972ZM97.7293 19.4C98.8453 19.4 99.8113 19.586 100.627 19.958C101.455 20.33 102.091 20.858 102.535 21.542C102.979 22.226 103.201 23.036 103.201 23.972C103.201 24.896 102.979 25.706 102.535 26.402C102.091 27.086 101.455 27.614 100.627 27.986C99.8113 28.346 98.8453 28.526 97.7293 28.526H95.1913V32H92.2753V19.4H97.7293ZM97.5673 26.15C98.4433 26.15 99.1093 25.964 99.5653 25.592C100.021 25.208 100.249 24.668 100.249 23.972C100.249 23.264 100.021 22.724 99.5653 22.352C99.1093 21.968 98.4433 21.776 97.5673 21.776H95.1913V26.15H97.5673ZM112.948 29.3H107.098L105.982 32H102.994L108.61 19.4H111.49L117.124 32H114.064L112.948 29.3ZM112.03 27.086L110.032 22.262L108.034 27.086H112.03ZM126.46 32L124.03 28.49H123.886H121.348V32H118.432V19.4H123.886C125.002 19.4 125.968 19.586 126.784 19.958C127.612 20.33 128.248 20.858 128.692 21.542C129.136 22.226 129.358 23.036 129.358 23.972C129.358 24.908 129.13 25.718 128.674 26.402C128.23 27.074 127.594 27.59 126.766 27.95L129.592 32H126.46ZM126.406 23.972C126.406 23.264 126.178 22.724 125.722 22.352C125.266 21.968 124.6 21.776 123.724 21.776H121.348V26.168H123.724C124.6 26.168 125.266 25.976 125.722 25.592C126.178 25.208 126.406 24.668 126.406 23.972ZM134.102 21.776H130.07V19.4H141.05V21.776H137.018V32H134.102V21.776ZM152.375 29.66V32H142.619V19.4H152.141V21.74H145.517V24.476H151.367V26.744H145.517V29.66H152.375ZM159.793 19.4H165.517C166.885 19.4 168.091 19.664 169.135 20.192C170.191 20.708 171.007 21.44 171.583 22.388C172.171 23.336 172.465 24.44 172.465 25.7C172.465 26.96 172.171 28.064 171.583 29.012C171.007 29.96 170.191 30.698 169.135 31.226C168.091 31.742 166.885 32 165.517 32H159.793V19.4ZM165.373 29.606C166.633 29.606 167.635 29.258 168.379 28.562C169.135 27.854 169.513 26.9 169.513 25.7C169.513 24.5 169.135 23.552 168.379 22.856C167.635 22.148 166.633 21.794 165.373 21.794H162.709V29.606H165.373ZM182.786 29.3H176.936L175.82 32H172.832L178.448 19.4H181.328L186.962 32H183.902L182.786 29.3ZM181.868 27.086L179.87 22.262L177.872 27.086H181.868ZM201.665 29.3H195.815L194.699 32H191.711L197.327 19.4H200.207L205.841 32H202.781L201.665 29.3ZM200.747 27.086L198.749 22.262L196.751 27.086H200.747ZM215.487 25.502H218.151V30.614C217.467 31.13 216.675 31.526 215.775 31.802C214.875 32.078 213.969 32.216 213.057 32.216C211.749 32.216 210.573 31.94 209.529 31.388C208.485 30.824 207.663 30.05 207.063 29.066C206.475 28.07 206.181 26.948 206.181 25.7C206.181 24.452 206.475 23.336 207.063 22.352C207.663 21.356 208.491 20.582 209.547 20.03C210.603 19.466 211.791 19.184 213.111 19.184C214.215 19.184 215.217 19.37 216.117 19.742C217.017 20.114 217.773 20.654 218.385 21.362L216.513 23.09C215.613 22.142 214.527 21.668 213.255 21.668C212.451 21.668 211.737 21.836 211.113 22.172C210.489 22.508 210.003 22.982 209.655 23.594C209.307 24.206 209.133 24.908 209.133 25.7C209.133 26.48 209.307 27.176 209.655 27.788C210.003 28.4 210.483 28.88 211.095 29.228C211.719 29.564 212.427 29.732 213.219 29.732C214.059 29.732 214.815 29.552 215.487 29.192V25.502ZM230.615 29.66V32H220.859V19.4H230.381V21.74H223.757V24.476H229.607V26.744H223.757V29.66H230.615ZM244.491 19.4V32H242.097L235.815 24.35V32H232.935V19.4H235.347L241.611 27.05V19.4H244.491ZM247.473 19.4H253.197C254.565 19.4 255.771 19.664 256.815 20.192C257.871 20.708 258.687 21.44 259.263 22.388C259.851 23.336 260.145 24.44 260.145 25.7C260.145 26.96 259.851 28.064 259.263 29.012C258.687 29.96 257.871 30.698 256.815 31.226C255.771 31.742 254.565 32 253.197 32H247.473V19.4ZM253.053 29.606C254.313 29.606 255.315 29.258 256.059 28.562C256.815 27.854 257.193 26.9 257.193 25.7C257.193 24.5 256.815 23.552 256.059 22.856C255.315 22.148 254.313 21.794 253.053 21.794H250.389V29.606H253.053ZM270.466 29.3H264.616L263.5 32H260.512L266.128 19.4H269.008L274.642 32H271.582L270.466 29.3ZM269.548 27.086L267.55 22.262L265.552 27.086H269.548Z" transform="translate(60 4)" fill="#333333"/>
<rect x="2" y="2" width="63" height="56" stroke="#333333" stroke-width="4"/>
<path fill-rule="evenodd" clip-rule="evenodd" d="M26.0546 30.6356L37.6344 37.5982V5.57011L34.7394 2.78505L30.397 0H5.7899L0 5.57011V25.0655L5.7899 30.6356H26.0546ZM7.95767 25.2644H27.5477L32.258 28.0966V7.85452L31.3905 7.01997L28.8198 5.37118H7.95767L5.37634 7.85451V22.7811L7.95767 25.2644Z" transform="translate(15 11.4849)" fill="#333333"/>
</svg>
