<svg width="672" height="394" viewBox="0 0 672 394" fill="none" xmlns="http://www.w3.org/2000/svg">
<ellipse cx="2.11543" cy="2.11249" rx="2.11543" ry="2.11249" transform="translate(11.2656 24.2686) rotate(-90)" fill="#333333"/>
<ellipse cx="2.11543" cy="2.11249" rx="2.11543" ry="2.11249" transform="translate(20.9561 24.2686) rotate(-90)" fill="#333333"/>
<ellipse cx="2.11543" cy="2.11249" rx="2.11543" ry="2.11249" transform="translate(20.9561 14.251) rotate(-90)" fill="#333333"/>
<ellipse cx="2.11543" cy="2.11249" rx="2.11543" ry="2.11249" transform="translate(30.6455 24.2686) rotate(-90)" fill="#333333"/>
<ellipse cx="2.11543" cy="2.11249" rx="2.11543" ry="2.11249" transform="translate(30.6436 14.251) rotate(-90)" fill="#333333"/>
<ellipse cx="2.11543" cy="2.11249" rx="2.11543" ry="2.11249" transform="translate(30.6436 4.23096) rotate(-90)" fill="#333333"/>
<ellipse cx="2.11543" cy="2.11249" rx="2.11543" ry="2.11249" transform="translate(40.335 24.2686) rotate(-90)" fill="#333333"/>
<ellipse cx="2.11543" cy="2.11249" rx="2.11543" ry="2.11249" transform="translate(40.335 14.251) rotate(-90)" fill="#333333"/>
<ellipse cx="2.11543" cy="2.11249" rx="2.11543" ry="2.11249" transform="translate(50.0225 24.2686) rotate(-90)" fill="#333333"/>
<ellipse cx="2.11543" cy="2.11249" rx="2.11543" ry="2.11249" transform="translate(50.0225 14.251) rotate(-90)" fill="#333333"/>
<ellipse cx="2.11543" cy="2.11249" rx="2.11543" ry="2.11249" transform="translate(40.335 4.23096) rotate(-90)" fill="#333333"/>
<ellipse cx="2.11543" cy="2.11249" rx="2.11543" ry="2.11249" transform="translate(50.0225 4.23096) rotate(-90)" fill="#333333"/>
<ellipse cx="2.11543" cy="2.11249" rx="2.11543" ry="2.11249" transform="translate(60.3594 24.2693) rotate(-90)" fill="#333333"/>
<ellipse cx="2.11543" cy="2.11249" rx="2.11543" ry="2.11249" transform="translate(60.3594 14.251) rotate(-90)" fill="#333333"/>
<ellipse cx="2.11543" cy="2.11249" rx="2.11543" ry="2.11249" transform="translate(70.0498 24.2686) rotate(-90)" fill="#333333"/>
<ellipse cx="2.11543" cy="2.11249" rx="2.11543" ry="2.11249" transform="translate(70.0498 14.251) rotate(-90)" fill="#333333"/>
<ellipse cx="2.11543" cy="2.11249" rx="2.11543" ry="2.11249" transform="translate(79.7393 24.2686) rotate(-90)" fill="#333333"/>
<ellipse cx="2.11543" cy="2.11249" rx="2.11543" ry="2.11249" transform="translate(79.7393 14.251) rotate(-90)" fill="#333333"/>
<ellipse cx="2.11543" cy="2.11249" rx="2.11543" ry="2.11249" transform="translate(89.4268 24.2686) rotate(-90)" fill="#333333"/>
<ellipse cx="2.11543" cy="2.11249" rx="2.11543" ry="2.11249" transform="translate(89.4268 14.251) rotate(-90)" fill="#333333"/>
<ellipse cx="2.11543" cy="2.11249" rx="2.11543" ry="2.11249" transform="translate(60.3594 4.23096) rotate(-90)" fill="#333333"/>
<ellipse cx="2.11543" cy="2.11249" rx="2.11543" ry="2.11249" transform="translate(70.0498 4.23096) rotate(-90)" fill="#333333"/>
<ellipse cx="2.11543" cy="2.11249" rx="2.11543" ry="2.11249" transform="translate(79.7393 4.23096) rotate(-90)" fill="#333333"/>
<ellipse cx="2.11543" cy="2.11249" rx="2.11543" ry="2.11249" transform="translate(89.4268 4.23096) rotate(-90)" fill="#333333"/>
<ellipse cx="2.11543" cy="2.11249" rx="2.11543" ry="2.11249" transform="translate(99.1162 24.2686) rotate(-90)" fill="#333333"/>
<ellipse cx="2.11543" cy="2.11249" rx="2.11543" ry="2.11249" transform="translate(99.1162 14.251) rotate(-90)" fill="#333333"/>
<ellipse cx="2.11543" cy="2.11249" rx="2.11543" ry="2.11249" transform="translate(108.807 24.2686) rotate(-90)" fill="#333333"/>
<ellipse cx="2.11543" cy="2.11249" rx="2.11543" ry="2.11249" transform="translate(108.807 14.251) rotate(-90)" fill="#333333"/>
<ellipse cx="2.11543" cy="2.11249" rx="2.11543" ry="2.11249" transform="translate(99.1162 4.23096) rotate(-90)" fill="#333333"/>
<ellipse cx="2.11543" cy="2.11249" rx="2.11543" ry="2.11249" transform="translate(108.807 4.23096) rotate(-90)" fill="#333333"/>
<ellipse cx="2.11543" cy="2.11249" rx="2.11543" ry="2.11249" transform="translate(119.144 24.2693) rotate(-90)" fill="#333333"/>
<ellipse cx="2.11543" cy="2.11249" rx="2.11543" ry="2.11249" transform="translate(119.144 14.251) rotate(-90)" fill="#333333"/>
<ellipse cx="2.11543" cy="2.11249" rx="2.11543" ry="2.11249" transform="translate(128.831 24.2686) rotate(-90)" fill="#333333"/>
<ellipse cx="2.11543" cy="2.11249" rx="2.11543" ry="2.11249" transform="translate(128.831 14.251) rotate(-90)" fill="#333333"/>
<ellipse cx="2.11543" cy="2.11249" rx="2.11543" ry="2.11249" transform="translate(138.522 24.2686) rotate(-90)" fill="#333333"/>
<ellipse cx="2.11543" cy="2.11249" rx="2.11543" ry="2.11249" transform="translate(138.522 14.251) rotate(-90)" fill="#333333"/>
<ellipse cx="2.11543" cy="2.11249" rx="2.11543" ry="2.11249" transform="translate(148.211 24.2686) rotate(-90)" fill="#333333"/>
<ellipse cx="2.11543" cy="2.11249" rx="2.11543" ry="2.11249" transform="translate(148.211 14.251) rotate(-90)" fill="#333333"/>
<ellipse cx="2.11543" cy="2.11249" rx="2.11543" ry="2.11249" transform="translate(119.144 4.23096) rotate(-90)" fill="#333333"/>
<ellipse cx="2.11543" cy="2.11249" rx="2.11543" ry="2.11249" transform="translate(128.831 4.23096) rotate(-90)" fill="#333333"/>
<ellipse cx="2.11543" cy="2.11249" rx="2.11543" ry="2.11249" transform="translate(138.522 4.23096) rotate(-90)" fill="#333333"/>
<ellipse cx="2.11543" cy="2.11249" rx="2.11543" ry="2.11249" transform="translate(148.211 4.23096) rotate(-90)" fill="#333333"/>
<ellipse cx="2.11543" cy="2.11249" rx="2.11543" ry="2.11249" transform="translate(157.9 24.2686) rotate(-90)" fill="#333333"/>
<ellipse cx="2.11543" cy="2.11249" rx="2.11543" ry="2.11249" transform="translate(157.9 14.251) rotate(-90)" fill="#333333"/>
<ellipse cx="2.11543" cy="2.11249" rx="2.11543" ry="2.11249" transform="translate(167.591 24.2686) rotate(-90)" fill="#333333"/>
<ellipse cx="2.11543" cy="2.11249" rx="2.11543" ry="2.11249" transform="translate(167.591 14.251) rotate(-90)" fill="#333333"/>
<ellipse cx="2.11543" cy="2.11249" rx="2.11543" ry="2.11249" transform="translate(157.9 4.23096) rotate(-90)" fill="#333333"/>
<ellipse cx="2.11543" cy="2.11249" rx="2.11543" ry="2.11249" transform="translate(167.591 4.23096) rotate(-90)" fill="#333333"/>
<ellipse cx="2.11543" cy="2.11249" rx="2.11543" ry="2.11249" transform="translate(177.924 24.2693) rotate(-90)" fill="#333333"/>
<ellipse cx="2.11543" cy="2.11249" rx="2.11543" ry="2.11249" transform="translate(177.924 14.251) rotate(-90)" fill="#333333"/>
<ellipse cx="2.11543" cy="2.11249" rx="2.11543" ry="2.11249" transform="translate(187.615 24.2686) rotate(-90)" fill="#333333"/>
<ellipse cx="2.11543" cy="2.11249" rx="2.11543" ry="2.11249" transform="translate(187.615 14.251) rotate(-90)" fill="#333333"/>
<ellipse cx="2.11543" cy="2.11249" rx="2.11543" ry="2.11249" transform="translate(197.305 24.2686) rotate(-90)" fill="#333333"/>
<ellipse cx="2.11543" cy="2.11249" rx="2.11543" ry="2.11249" transform="translate(197.305 14.251) rotate(-90)" fill="#333333"/>
<ellipse cx="2.11543" cy="2.11249" rx="2.11543" ry="2.11249" transform="translate(206.993 24.2686) rotate(-90)" fill="#333333"/>
<ellipse cx="2.11543" cy="2.11249" rx="2.11543" ry="2.11249" transform="translate(206.993 14.251) rotate(-90)" fill="#333333"/>
<ellipse cx="2.11543" cy="2.11249" rx="2.11543" ry="2.11249" transform="translate(177.924 4.23096) rotate(-90)" fill="#333333"/>
<ellipse cx="2.11543" cy="2.11249" rx="2.11543" ry="2.11249" transform="translate(187.615 4.23096) rotate(-90)" fill="#333333"/>
<ellipse cx="2.11543" cy="2.11249" rx="2.11543" ry="2.11249" transform="translate(197.305 4.23096) rotate(-90)" fill="#333333"/>
<ellipse cx="2.11543" cy="2.11249" rx="2.11543" ry="2.11249" transform="translate(206.993 4.23096) rotate(-90)" fill="#333333"/>
<ellipse cx="2.11543" cy="2.11249" rx="2.11543" ry="2.11249" transform="translate(216.684 24.2686) rotate(-90)" fill="#333333"/>
<ellipse cx="2.11543" cy="2.11249" rx="2.11543" ry="2.11249" transform="translate(216.684 14.251) rotate(-90)" fill="#333333"/>
<ellipse cx="2.11543" cy="2.11249" rx="2.11543" ry="2.11249" transform="translate(226.373 24.2686) rotate(-90)" fill="#333333"/>
<ellipse cx="2.11543" cy="2.11249" rx="2.11543" ry="2.11249" transform="translate(226.373 14.251) rotate(-90)" fill="#333333"/>
<ellipse cx="2.11543" cy="2.11249" rx="2.11543" ry="2.11249" transform="translate(216.684 4.23096) rotate(-90)" fill="#333333"/>
<ellipse cx="2.11543" cy="2.11249" rx="2.11543" ry="2.11249" transform="translate(226.373 4.23096) rotate(-90)" fill="#333333"/>
<ellipse cx="2.11543" cy="2.11249" rx="2.11543" ry="2.11249" transform="translate(236.708 24.269) rotate(-90)" fill="#333333"/>
<ellipse cx="2.11543" cy="2.11249" rx="2.11543" ry="2.11249" transform="translate(236.708 14.251) rotate(-90)" fill="#333333"/>
<ellipse cx="2.11543" cy="2.11249" rx="2.11543" ry="2.11249" transform="translate(246.397 24.2686) rotate(-90)" fill="#333333"/>
<ellipse cx="2.11543" cy="2.11249" rx="2.11543" ry="2.11249" transform="translate(246.397 14.251) rotate(-90)" fill="#333333"/>
<ellipse cx="2.11543" cy="2.11249" rx="2.11543" ry="2.11249" transform="translate(256.088 24.2686) rotate(-90)" fill="#333333"/>
<ellipse cx="2.11543" cy="2.11249" rx="2.11543" ry="2.11249" transform="translate(256.088 14.251) rotate(-90)" fill="#333333"/>
<ellipse cx="2.11543" cy="2.11249" rx="2.11543" ry="2.11249" transform="translate(265.777 24.2686) rotate(-90)" fill="#333333"/>
<ellipse cx="2.11543" cy="2.11249" rx="2.11543" ry="2.11249" transform="translate(265.777 14.251) rotate(-90)" fill="#333333"/>
<ellipse cx="2.11543" cy="2.11249" rx="2.11543" ry="2.11249" transform="translate(236.708 4.23096) rotate(-90)" fill="#333333"/>
<ellipse cx="2.11543" cy="2.11249" rx="2.11543" ry="2.11249" transform="translate(246.397 4.23096) rotate(-90)" fill="#333333"/>
<ellipse cx="2.11543" cy="2.11249" rx="2.11543" ry="2.11249" transform="translate(256.088 4.23096) rotate(-90)" fill="#333333"/>
<ellipse cx="2.11543" cy="2.11249" rx="2.11543" ry="2.11249" transform="translate(265.777 4.23096) rotate(-90)" fill="#333333"/>
<ellipse cx="2.11543" cy="2.11249" rx="2.11543" ry="2.11249" transform="translate(275.467 24.2686) rotate(-90)" fill="#333333"/>
<ellipse cx="2.11543" cy="2.11249" rx="2.11543" ry="2.11249" transform="translate(275.467 14.251) rotate(-90)" fill="#333333"/>
<ellipse cx="2.11543" cy="2.11249" rx="2.11543" ry="2.11249" transform="translate(285.156 24.2686) rotate(-90)" fill="#333333"/>
<ellipse cx="2.11543" cy="2.11249" rx="2.11543" ry="2.11249" transform="translate(285.156 14.251) rotate(-90)" fill="#333333"/>
<ellipse cx="2.11543" cy="2.11249" rx="2.11543" ry="2.11249" transform="translate(275.467 4.23096) rotate(-90)" fill="#333333"/>
<ellipse cx="2.11543" cy="2.11249" rx="2.11543" ry="2.11249" transform="translate(285.156 4.23096) rotate(-90)" fill="#333333"/>
<ellipse cx="2.11543" cy="2.11249" rx="2.11543" ry="2.11249" transform="translate(295.491 24.269) rotate(-90)" fill="#333333"/>
<ellipse cx="2.11543" cy="2.11249" rx="2.11543" ry="2.11249" transform="translate(295.491 14.251) rotate(-90)" fill="#333333"/>
<ellipse cx="2.11543" cy="2.11249" rx="2.11543" ry="2.11249" transform="translate(305.182 24.2686) rotate(-90)" fill="#333333"/>
<ellipse cx="2.11543" cy="2.11249" rx="2.11543" ry="2.11249" transform="translate(305.182 14.251) rotate(-90)" fill="#333333"/>
<ellipse cx="2.11543" cy="2.11249" rx="2.11543" ry="2.11249" transform="translate(314.871 24.2686) rotate(-90)" fill="#333333"/>
<ellipse cx="2.11543" cy="2.11249" rx="2.11543" ry="2.11249" transform="translate(314.871 14.251) rotate(-90)" fill="#333333"/>
<ellipse cx="2.11543" cy="2.11249" rx="2.11543" ry="2.11249" transform="translate(324.559 24.2686) rotate(-90)" fill="#333333"/>
<ellipse cx="2.11543" cy="2.11249" rx="2.11543" ry="2.11249" transform="translate(324.559 14.251) rotate(-90)" fill="#333333"/>
<ellipse cx="2.11543" cy="2.11249" rx="2.11543" ry="2.11249" transform="translate(295.491 4.23096) rotate(-90)" fill="#333333"/>
<ellipse cx="2.11543" cy="2.11249" rx="2.11543" ry="2.11249" transform="translate(305.182 4.23096) rotate(-90)" fill="#333333"/>
<ellipse cx="2.11543" cy="2.11249" rx="2.11543" ry="2.11249" transform="translate(314.871 4.23096) rotate(-90)" fill="#333333"/>
<ellipse cx="2.11543" cy="2.11249" rx="2.11543" ry="2.11249" transform="translate(324.559 4.23096) rotate(-90)" fill="#333333"/>
<ellipse cx="2.11543" cy="2.11249" rx="2.11543" ry="2.11249" transform="translate(334.25 24.2686) rotate(-90)" fill="#333333"/>
<ellipse cx="2.11543" cy="2.11249" rx="2.11543" ry="2.11249" transform="translate(334.25 14.251) rotate(-90)" fill="#333333"/>
<ellipse cx="2.11543" cy="2.11249" rx="2.11543" ry="2.11249" transform="translate(343.94 24.2686) rotate(-90)" fill="#333333"/>
<ellipse cx="2.11543" cy="2.11249" rx="2.11543" ry="2.11249" transform="translate(343.94 14.251) rotate(-90)" fill="#333333"/>
<ellipse cx="2.11543" cy="2.11249" rx="2.11543" ry="2.11249" transform="translate(334.25 4.23096) rotate(-90)" fill="#333333"/>
<ellipse cx="2.11543" cy="2.11249" rx="2.11543" ry="2.11249" transform="translate(343.94 4.23096) rotate(-90)" fill="#333333"/>
<ellipse cx="2.11543" cy="2.11249" rx="2.11543" ry="2.11249" transform="translate(354.274 24.269) rotate(-90)" fill="#333333"/>
<ellipse cx="2.11543" cy="2.11249" rx="2.11543" ry="2.11249" transform="translate(354.274 14.251) rotate(-90)" fill="#333333"/>
<ellipse cx="2.11543" cy="2.11249" rx="2.11543" ry="2.11249" transform="translate(363.965 24.2686) rotate(-90)" fill="#333333"/>
<ellipse cx="2.11543" cy="2.11249" rx="2.11543" ry="2.11249" transform="translate(363.965 14.251) rotate(-90)" fill="#333333"/>
<ellipse cx="2.11543" cy="2.11249" rx="2.11543" ry="2.11249" transform="translate(373.654 24.2686) rotate(-90)" fill="#333333"/>
<ellipse cx="2.11543" cy="2.11249" rx="2.11543" ry="2.11249" transform="translate(373.654 14.251) rotate(-90)" fill="#333333"/>
<ellipse cx="2.11543" cy="2.11249" rx="2.11543" ry="2.11249" transform="translate(383.343 24.2686) rotate(-90)" fill="#333333"/>
<ellipse cx="2.11543" cy="2.11249" rx="2.11543" ry="2.11249" transform="translate(383.343 14.251) rotate(-90)" fill="#333333"/>
<ellipse cx="2.11543" cy="2.11249" rx="2.11543" ry="2.11249" transform="translate(354.274 4.23096) rotate(-90)" fill="#333333"/>
<ellipse cx="2.11543" cy="2.11249" rx="2.11543" ry="2.11249" transform="translate(363.965 4.23096) rotate(-90)" fill="#333333"/>
<ellipse cx="2.11543" cy="2.11249" rx="2.11543" ry="2.11249" transform="translate(373.654 4.23096) rotate(-90)" fill="#333333"/>
<ellipse cx="2.11543" cy="2.11249" rx="2.11543" ry="2.11249" transform="translate(383.343 4.23096) rotate(-90)" fill="#333333"/>
<ellipse cx="2.11543" cy="2.11249" rx="2.11543" ry="2.11249" transform="translate(393.034 24.2686) rotate(-90)" fill="#333333"/>
<ellipse cx="2.11543" cy="2.11249" rx="2.11543" ry="2.11249" transform="translate(393.034 14.251) rotate(-90)" fill="#333333"/>
<ellipse cx="2.11543" cy="2.11249" rx="2.11543" ry="2.11249" transform="translate(402.723 24.2686) rotate(-90)" fill="#333333"/>
<ellipse cx="2.11543" cy="2.11249" rx="2.11543" ry="2.11249" transform="translate(402.723 14.251) rotate(-90)" fill="#333333"/>
<ellipse cx="2.11543" cy="2.11249" rx="2.11543" ry="2.11249" transform="translate(393.034 4.23096) rotate(-90)" fill="#333333"/>
<ellipse cx="2.11543" cy="2.11249" rx="2.11543" ry="2.11249" transform="translate(402.723 4.23096) rotate(-90)" fill="#333333"/>
<ellipse cx="2.11543" cy="2.11249" rx="2.11543" ry="2.11249" transform="translate(413.059 24.269) rotate(-90)" fill="#333333"/>
<ellipse cx="2.11543" cy="2.11249" rx="2.11543" ry="2.11249" transform="translate(413.059 14.251) rotate(-90)" fill="#333333"/>
<ellipse cx="2.11543" cy="2.11249" rx="2.11543" ry="2.11249" transform="translate(422.747 24.2686) rotate(-90)" fill="#333333"/>
<ellipse cx="2.11543" cy="2.11249" rx="2.11543" ry="2.11249" transform="translate(422.747 14.251) rotate(-90)" fill="#333333"/>
<ellipse cx="2.11543" cy="2.11249" rx="2.11543" ry="2.11249" transform="translate(432.438 24.2686) rotate(-90)" fill="#333333"/>
<ellipse cx="2.11543" cy="2.11249" rx="2.11543" ry="2.11249" transform="translate(432.438 14.251) rotate(-90)" fill="#333333"/>
<ellipse cx="2.11543" cy="2.11249" rx="2.11543" ry="2.11249" transform="translate(442.127 24.2686) rotate(-90)" fill="#333333"/>
<ellipse cx="2.11543" cy="2.11249" rx="2.11543" ry="2.11249" transform="translate(442.127 14.251) rotate(-90)" fill="#333333"/>
<ellipse cx="2.11543" cy="2.11249" rx="2.11543" ry="2.11249" transform="translate(413.059 4.23096) rotate(-90)" fill="#333333"/>
<ellipse cx="2.11543" cy="2.11249" rx="2.11543" ry="2.11249" transform="translate(422.747 4.23096) rotate(-90)" fill="#333333"/>
<ellipse cx="2.11543" cy="2.11249" rx="2.11543" ry="2.11249" transform="translate(432.438 4.23096) rotate(-90)" fill="#333333"/>
<ellipse cx="2.11543" cy="2.11249" rx="2.11543" ry="2.11249" transform="translate(442.127 4.23096) rotate(-90)" fill="#333333"/>
<ellipse cx="2.11543" cy="2.11249" rx="2.11543" ry="2.11249" transform="translate(451.816 24.2686) rotate(-90)" fill="#333333"/>
<ellipse cx="2.11543" cy="2.11249" rx="2.11543" ry="2.11249" transform="translate(451.816 14.251) rotate(-90)" fill="#333333"/>
<ellipse cx="2.11543" cy="2.11249" rx="2.11543" ry="2.11249" transform="translate(461.506 24.2686) rotate(-90)" fill="#333333"/>
<ellipse cx="2.11543" cy="2.11249" rx="2.11543" ry="2.11249" transform="translate(461.506 14.251) rotate(-90)" fill="#333333"/>
<ellipse cx="2.11543" cy="2.11249" rx="2.11543" ry="2.11249" transform="translate(451.816 4.23096) rotate(-90)" fill="#333333"/>
<ellipse cx="2.11543" cy="2.11249" rx="2.11543" ry="2.11249" transform="translate(461.506 4.23096) rotate(-90)" fill="#333333"/>
<ellipse cx="2.11543" cy="2.11249" rx="2.11543" ry="2.11249" transform="translate(471.841 24.269) rotate(-90)" fill="#333333"/>
<ellipse cx="2.11543" cy="2.11249" rx="2.11543" ry="2.11249" transform="translate(471.841 14.251) rotate(-90)" fill="#333333"/>
<ellipse cx="2.11543" cy="2.11249" rx="2.11543" ry="2.11249" transform="translate(481.531 24.2686) rotate(-90)" fill="#333333"/>
<ellipse cx="2.11543" cy="2.11249" rx="2.11543" ry="2.11249" transform="translate(481.531 14.251) rotate(-90)" fill="#333333"/>
<ellipse cx="2.11543" cy="2.11249" rx="2.11543" ry="2.11249" transform="translate(491.222 24.2686) rotate(-90)" fill="#333333"/>
<ellipse cx="2.11543" cy="2.11249" rx="2.11543" ry="2.11249" transform="translate(491.222 14.251) rotate(-90)" fill="#333333"/>
<ellipse cx="2.11543" cy="2.11249" rx="2.11543" ry="2.11249" transform="translate(500.909 24.2686) rotate(-90)" fill="#333333"/>
<ellipse cx="2.11543" cy="2.11249" rx="2.11543" ry="2.11249" transform="translate(500.909 14.251) rotate(-90)" fill="#333333"/>
<ellipse cx="2.11543" cy="2.11249" rx="2.11543" ry="2.11249" transform="translate(471.841 4.23096) rotate(-90)" fill="#333333"/>
<ellipse cx="2.11543" cy="2.11249" rx="2.11543" ry="2.11249" transform="translate(481.531 4.23096) rotate(-90)" fill="#333333"/>
<ellipse cx="2.11543" cy="2.11249" rx="2.11543" ry="2.11249" transform="translate(491.222 4.23096) rotate(-90)" fill="#333333"/>
<ellipse cx="2.11543" cy="2.11249" rx="2.11543" ry="2.11249" transform="translate(500.909 4.23096) rotate(-90)" fill="#333333"/>
<ellipse cx="2.11543" cy="2.11249" rx="2.11543" ry="2.11249" transform="translate(510.6 24.2686) rotate(-90)" fill="#333333"/>
<ellipse cx="2.11543" cy="2.11249" rx="2.11543" ry="2.11249" transform="translate(510.6 14.251) rotate(-90)" fill="#333333"/>
<ellipse cx="2.11543" cy="2.11249" rx="2.11543" ry="2.11249" transform="translate(520.289 24.2686) rotate(-90)" fill="#333333"/>
<ellipse cx="2.11543" cy="2.11249" rx="2.11543" ry="2.11249" transform="translate(520.289 14.251) rotate(-90)" fill="#333333"/>
<ellipse cx="2.11543" cy="2.11249" rx="2.11543" ry="2.11249" transform="translate(510.6 4.23096) rotate(-90)" fill="#333333"/>
<ellipse cx="2.11543" cy="2.11249" rx="2.11543" ry="2.11249" transform="translate(520.289 4.23096) rotate(-90)" fill="#333333"/>
<ellipse cx="2.11543" cy="2.11249" rx="2.11543" ry="2.11249" transform="translate(530.625 24.269) rotate(-90)" fill="#333333"/>
<ellipse cx="2.11543" cy="2.11249" rx="2.11543" ry="2.11249" transform="translate(530.625 14.251) rotate(-90)" fill="#333333"/>
<ellipse cx="2.11543" cy="2.11249" rx="2.11543" ry="2.11249" transform="translate(540.314 24.2686) rotate(-90)" fill="#333333"/>
<ellipse cx="2.11543" cy="2.11249" rx="2.11543" ry="2.11249" transform="translate(540.314 14.251) rotate(-90)" fill="#333333"/>
<ellipse cx="2.11543" cy="2.11249" rx="2.11543" ry="2.11249" transform="translate(550.004 24.2686) rotate(-90)" fill="#333333"/>
<ellipse cx="2.11543" cy="2.11249" rx="2.11543" ry="2.11249" transform="translate(550.004 14.251) rotate(-90)" fill="#333333"/>
<ellipse cx="2.11543" cy="2.11249" rx="2.11543" ry="2.11249" transform="translate(559.691 24.2686) rotate(-90)" fill="#333333"/>
<ellipse cx="2.11543" cy="2.11249" rx="2.11543" ry="2.11249" transform="translate(559.691 14.251) rotate(-90)" fill="#333333"/>
<ellipse cx="2.11543" cy="2.11249" rx="2.11543" ry="2.11249" transform="translate(530.625 4.23096) rotate(-90)" fill="#333333"/>
<ellipse cx="2.11543" cy="2.11249" rx="2.11543" ry="2.11249" transform="translate(540.314 4.23096) rotate(-90)" fill="#333333"/>
<ellipse cx="2.11543" cy="2.11249" rx="2.11543" ry="2.11249" transform="translate(550.004 4.23096) rotate(-90)" fill="#333333"/>
<ellipse cx="2.11543" cy="2.11249" rx="2.11543" ry="2.11249" transform="translate(559.691 4.23096) rotate(-90)" fill="#333333"/>
<ellipse cx="2.11543" cy="2.11249" rx="2.11543" ry="2.11249" transform="translate(569.382 24.2686) rotate(-90)" fill="#333333"/>
<ellipse cx="2.11543" cy="2.11249" rx="2.11543" ry="2.11249" transform="translate(569.382 14.251) rotate(-90)" fill="#333333"/>
<ellipse cx="2.11543" cy="2.11249" rx="2.11543" ry="2.11249" transform="translate(579.073 24.2686) rotate(-90)" fill="#333333"/>
<ellipse cx="2.11543" cy="2.11249" rx="2.11543" ry="2.11249" transform="translate(579.073 14.251) rotate(-90)" fill="#333333"/>
<ellipse cx="2.11543" cy="2.11249" rx="2.11543" ry="2.11249" transform="translate(569.382 4.23096) rotate(-90)" fill="#333333"/>
<ellipse cx="2.11543" cy="2.11249" rx="2.11543" ry="2.11249" transform="translate(579.073 4.23096) rotate(-90)" fill="#333333"/>
<ellipse cx="2.11543" cy="2.11249" rx="2.11543" ry="2.11249" transform="translate(589.406 24.269) rotate(-90)" fill="#333333"/>
<ellipse cx="2.11543" cy="2.11249" rx="2.11543" ry="2.11249" transform="translate(589.406 14.251) rotate(-90)" fill="#333333"/>
<ellipse cx="2.11543" cy="2.11249" rx="2.11543" ry="2.11249" transform="translate(599.096 24.2686) rotate(-90)" fill="#333333"/>
<ellipse cx="2.11543" cy="2.11249" rx="2.11543" ry="2.11249" transform="translate(599.096 14.251) rotate(-90)" fill="#333333"/>
<ellipse cx="2.11543" cy="2.11249" rx="2.11543" ry="2.11249" transform="translate(608.786 24.2686) rotate(-90)" fill="#333333"/>
<ellipse cx="2.11543" cy="2.11249" rx="2.11543" ry="2.11249" transform="translate(608.786 14.251) rotate(-90)" fill="#333333"/>
<ellipse cx="2.11543" cy="2.11249" rx="2.11543" ry="2.11249" transform="translate(618.475 24.2686) rotate(-90)" fill="#333333"/>
<ellipse cx="2.11543" cy="2.11249" rx="2.11543" ry="2.11249" transform="translate(618.475 14.251) rotate(-90)" fill="#333333"/>
<ellipse cx="2.11543" cy="2.11249" rx="2.11543" ry="2.11249" transform="translate(589.406 4.23096) rotate(-90)" fill="#333333"/>
<ellipse cx="2.11543" cy="2.11249" rx="2.11543" ry="2.11249" transform="translate(599.096 4.23096) rotate(-90)" fill="#333333"/>
<ellipse cx="2.11543" cy="2.11249" rx="2.11543" ry="2.11249" transform="translate(608.786 4.23096) rotate(-90)" fill="#333333"/>
<ellipse cx="2.11543" cy="2.11249" rx="2.11543" ry="2.11249" transform="translate(618.475 4.23096) rotate(-90)" fill="#333333"/>
<ellipse cx="2.11543" cy="2.11249" rx="2.11543" ry="2.11249" transform="translate(628.166 24.2686) rotate(-90)" fill="#333333"/>
<ellipse cx="2.11543" cy="2.11249" rx="2.11543" ry="2.11249" transform="translate(628.166 14.251) rotate(-90)" fill="#333333"/>
<ellipse cx="2.11543" cy="2.11249" rx="2.11543" ry="2.11249" transform="translate(637.855 24.2686) rotate(-90)" fill="#333333"/>
<ellipse cx="2.11543" cy="2.11249" rx="2.11543" ry="2.11249" transform="translate(637.855 14.251) rotate(-90)" fill="#333333"/>
<ellipse cx="2.11543" cy="2.11249" rx="2.11543" ry="2.11249" transform="translate(628.166 4.23096) rotate(-90)" fill="#333333"/>
<ellipse cx="2.11543" cy="2.11249" rx="2.11543" ry="2.11249" transform="translate(637.855 4.23096) rotate(-90)" fill="#333333"/>
<ellipse cx="2.11543" cy="2.11249" rx="2.11543" ry="2.11249" transform="translate(648.19 24.269) rotate(-90)" fill="#333333"/>
<ellipse cx="2.11543" cy="2.11249" rx="2.11543" ry="2.11249" transform="translate(648.19 14.251) rotate(-90)" fill="#333333"/>
<ellipse cx="2.11543" cy="2.11249" rx="2.11543" ry="2.11249" transform="translate(657.88 24.2686) rotate(-90)" fill="#333333"/>
<ellipse cx="2.11543" cy="2.11249" rx="2.11543" ry="2.11249" transform="translate(657.88 14.251) rotate(-90)" fill="#333333"/>
<ellipse cx="2.11543" cy="2.11249" rx="2.11543" ry="2.11249" transform="translate(667.57 24.2686) rotate(-90)" fill="#333333"/>
<ellipse cx="2.11543" cy="2.11249" rx="2.11543" ry="2.11249" transform="translate(667.57 14.251) rotate(-90)" fill="#333333"/>
<ellipse cx="2.11543" cy="2.11249" rx="2.11543" ry="2.11249" transform="translate(648.19 4.23096) rotate(-90)" fill="#333333"/>
<ellipse cx="2.11543" cy="2.11249" rx="2.11543" ry="2.11249" transform="translate(657.88 4.23096) rotate(-90)" fill="#333333"/>
<ellipse cx="2.11543" cy="2.11249" rx="2.11543" ry="2.11249" transform="translate(667.57 4.23096) rotate(-90)" fill="#333333"/>
<ellipse cx="2.11543" cy="2.11249" rx="2.11543" ry="2.11249" transform="translate(648.19 74.7642) rotate(-90)" fill="#333333"/>
<ellipse cx="2.11543" cy="2.11249" rx="2.11543" ry="2.11249" transform="translate(648.19 64.7458) rotate(-90)" fill="#333333"/>
<ellipse cx="2.11543" cy="2.11249" rx="2.11543" ry="2.11249" transform="translate(657.88 74.7632) rotate(-90)" fill="#333333"/>
<ellipse cx="2.11543" cy="2.11249" rx="2.11543" ry="2.11249" transform="translate(657.88 64.7458) rotate(-90)" fill="#333333"/>
<ellipse cx="2.11543" cy="2.11249" rx="2.11543" ry="2.11249" transform="translate(667.57 74.7632) rotate(-90)" fill="#333333"/>
<ellipse cx="2.11543" cy="2.11249" rx="2.11543" ry="2.11249" transform="translate(667.57 64.7458) rotate(-90)" fill="#333333"/>
<ellipse cx="2.11543" cy="2.11249" rx="2.11543" ry="2.11249" transform="translate(648.19 54.7256) rotate(-90)" fill="#333333"/>
<ellipse cx="2.11543" cy="2.11249" rx="2.11543" ry="2.11249" transform="translate(648.19 44.7083) rotate(-90)" fill="#333333"/>
<ellipse cx="2.11543" cy="2.11249" rx="2.11543" ry="2.11249" transform="translate(648.19 34.6887) rotate(-90)" fill="#333333"/>
<ellipse cx="2.11543" cy="2.11249" rx="2.11543" ry="2.11249" transform="translate(657.88 54.7256) rotate(-90)" fill="#333333"/>
<ellipse cx="2.11543" cy="2.11249" rx="2.11543" ry="2.11249" transform="translate(657.88 44.7083) rotate(-90)" fill="#333333"/>
<ellipse cx="2.11543" cy="2.11249" rx="2.11543" ry="2.11249" transform="translate(657.88 34.6887) rotate(-90)" fill="#333333"/>
<ellipse cx="2.11543" cy="2.11249" rx="2.11543" ry="2.11249" transform="translate(667.57 54.7256) rotate(-90)" fill="#333333"/>
<ellipse cx="2.11543" cy="2.11249" rx="2.11543" ry="2.11249" transform="translate(667.57 44.7083) rotate(-90)" fill="#333333"/>
<ellipse cx="2.11543" cy="2.11249" rx="2.11543" ry="2.11249" transform="translate(667.57 34.6887) rotate(-90)" fill="#333333"/>
<ellipse cx="2.11543" cy="2.11249" rx="2.11543" ry="2.11249" transform="translate(648.19 125.26) rotate(-90)" fill="#333333"/>
<ellipse cx="2.11543" cy="2.11249" rx="2.11543" ry="2.11249" transform="translate(648.19 115.24) rotate(-90)" fill="#333333"/>
<ellipse cx="2.11543" cy="2.11249" rx="2.11543" ry="2.11249" transform="translate(657.88 125.259) rotate(-90)" fill="#333333"/>
<ellipse cx="2.11543" cy="2.11249" rx="2.11543" ry="2.11249" transform="translate(657.88 115.24) rotate(-90)" fill="#333333"/>
<ellipse cx="2.11543" cy="2.11249" rx="2.11543" ry="2.11249" transform="translate(667.57 125.259) rotate(-90)" fill="#333333"/>
<ellipse cx="2.11543" cy="2.11249" rx="2.11543" ry="2.11249" transform="translate(667.57 115.24) rotate(-90)" fill="#333333"/>
<ellipse cx="2.11543" cy="2.11249" rx="2.11543" ry="2.11249" transform="translate(648.19 105.221) rotate(-90)" fill="#333333"/>
<ellipse cx="2.11543" cy="2.11249" rx="2.11543" ry="2.11249" transform="translate(648.19 95.2034) rotate(-90)" fill="#333333"/>
<ellipse cx="2.11543" cy="2.11249" rx="2.11543" ry="2.11249" transform="translate(648.19 85.1843) rotate(-90)" fill="#333333"/>
<ellipse cx="2.11543" cy="2.11249" rx="2.11543" ry="2.11249" transform="translate(657.88 105.221) rotate(-90)" fill="#333333"/>
<ellipse cx="2.11543" cy="2.11249" rx="2.11543" ry="2.11249" transform="translate(657.88 95.2034) rotate(-90)" fill="#333333"/>
<ellipse cx="2.11543" cy="2.11249" rx="2.11543" ry="2.11249" transform="translate(657.88 85.1843) rotate(-90)" fill="#333333"/>
<ellipse cx="2.11543" cy="2.11249" rx="2.11543" ry="2.11249" transform="translate(667.57 105.221) rotate(-90)" fill="#333333"/>
<ellipse cx="2.11543" cy="2.11249" rx="2.11543" ry="2.11249" transform="translate(667.57 95.2034) rotate(-90)" fill="#333333"/>
<ellipse cx="2.11543" cy="2.11249" rx="2.11543" ry="2.11249" transform="translate(667.57 85.1843) rotate(-90)" fill="#333333"/>
<ellipse cx="2.11543" cy="2.11249" rx="2.11543" ry="2.11249" transform="translate(648.19 175.754) rotate(-90)" fill="#333333"/>
<ellipse cx="2.11543" cy="2.11249" rx="2.11543" ry="2.11249" transform="translate(648.19 165.736) rotate(-90)" fill="#333333"/>
<ellipse cx="2.11543" cy="2.11249" rx="2.11543" ry="2.11249" transform="translate(657.88 175.754) rotate(-90)" fill="#333333"/>
<ellipse cx="2.11543" cy="2.11249" rx="2.11543" ry="2.11249" transform="translate(657.88 165.736) rotate(-90)" fill="#333333"/>
<ellipse cx="2.11543" cy="2.11249" rx="2.11543" ry="2.11249" transform="translate(667.57 175.754) rotate(-90)" fill="#333333"/>
<ellipse cx="2.11543" cy="2.11249" rx="2.11543" ry="2.11249" transform="translate(667.57 165.736) rotate(-90)" fill="#333333"/>
<ellipse cx="2.11543" cy="2.11249" rx="2.11543" ry="2.11249" transform="translate(648.19 155.716) rotate(-90)" fill="#333333"/>
<ellipse cx="2.11543" cy="2.11249" rx="2.11543" ry="2.11249" transform="translate(648.19 145.698) rotate(-90)" fill="#333333"/>
<ellipse cx="2.11543" cy="2.11249" rx="2.11543" ry="2.11249" transform="translate(648.19 135.679) rotate(-90)" fill="#333333"/>
<ellipse cx="2.11543" cy="2.11249" rx="2.11543" ry="2.11249" transform="translate(657.88 155.716) rotate(-90)" fill="#333333"/>
<ellipse cx="2.11543" cy="2.11249" rx="2.11543" ry="2.11249" transform="translate(657.88 145.698) rotate(-90)" fill="#333333"/>
<ellipse cx="2.11543" cy="2.11249" rx="2.11543" ry="2.11249" transform="translate(657.88 135.679) rotate(-90)" fill="#333333"/>
<ellipse cx="2.11543" cy="2.11249" rx="2.11543" ry="2.11249" transform="translate(667.57 155.716) rotate(-90)" fill="#333333"/>
<ellipse cx="2.11543" cy="2.11249" rx="2.11543" ry="2.11249" transform="translate(667.57 145.698) rotate(-90)" fill="#333333"/>
<ellipse cx="2.11543" cy="2.11249" rx="2.11543" ry="2.11249" transform="translate(667.57 135.679) rotate(-90)" fill="#333333"/>
<ellipse cx="2.11543" cy="2.11249" rx="2.11543" ry="2.11249" transform="translate(648.19 226.249) rotate(-90)" fill="#333333"/>
<ellipse cx="2.11543" cy="2.11249" rx="2.11543" ry="2.11249" transform="translate(648.19 216.23) rotate(-90)" fill="#333333"/>
<ellipse cx="2.11543" cy="2.11249" rx="2.11543" ry="2.11249" transform="translate(657.88 226.249) rotate(-90)" fill="#333333"/>
<ellipse cx="2.11543" cy="2.11249" rx="2.11543" ry="2.11249" transform="translate(657.88 216.23) rotate(-90)" fill="#333333"/>
<ellipse cx="2.11543" cy="2.11249" rx="2.11543" ry="2.11249" transform="translate(667.57 226.249) rotate(-90)" fill="#333333"/>
<ellipse cx="2.11543" cy="2.11249" rx="2.11543" ry="2.11249" transform="translate(667.57 216.23) rotate(-90)" fill="#333333"/>
<ellipse cx="2.11543" cy="2.11249" rx="2.11543" ry="2.11249" transform="translate(648.19 206.211) rotate(-90)" fill="#333333"/>
<ellipse cx="2.11543" cy="2.11249" rx="2.11543" ry="2.11249" transform="translate(648.19 196.193) rotate(-90)" fill="#333333"/>
<ellipse cx="2.11543" cy="2.11249" rx="2.11543" ry="2.11249" transform="translate(648.19 186.174) rotate(-90)" fill="#333333"/>
<ellipse cx="2.11543" cy="2.11249" rx="2.11543" ry="2.11249" transform="translate(657.88 206.211) rotate(-90)" fill="#333333"/>
<ellipse cx="2.11543" cy="2.11249" rx="2.11543" ry="2.11249" transform="translate(657.88 196.193) rotate(-90)" fill="#333333"/>
<ellipse cx="2.11543" cy="2.11249" rx="2.11543" ry="2.11249" transform="translate(657.88 186.174) rotate(-90)" fill="#333333"/>
<ellipse cx="2.11543" cy="2.11249" rx="2.11543" ry="2.11249" transform="translate(667.57 206.211) rotate(-90)" fill="#333333"/>
<ellipse cx="2.11543" cy="2.11249" rx="2.11543" ry="2.11249" transform="translate(667.57 196.193) rotate(-90)" fill="#333333"/>
<ellipse cx="2.11543" cy="2.11249" rx="2.11543" ry="2.11249" transform="translate(667.57 186.174) rotate(-90)" fill="#333333"/>
<ellipse cx="2.11543" cy="2.11249" rx="2.11543" ry="2.11249" transform="translate(648.19 276.744) rotate(-90)" fill="#333333"/>
<ellipse cx="2.11543" cy="2.11249" rx="2.11543" ry="2.11249" transform="translate(648.19 266.726) rotate(-90)" fill="#333333"/>
<ellipse cx="2.11543" cy="2.11249" rx="2.11543" ry="2.11249" transform="translate(657.88 276.744) rotate(-90)" fill="#333333"/>
<ellipse cx="2.11543" cy="2.11249" rx="2.11543" ry="2.11249" transform="translate(657.88 266.726) rotate(-90)" fill="#333333"/>
<ellipse cx="2.11543" cy="2.11249" rx="2.11543" ry="2.11249" transform="translate(667.57 276.744) rotate(-90)" fill="#333333"/>
<ellipse cx="2.11543" cy="2.11249" rx="2.11543" ry="2.11249" transform="translate(667.57 266.726) rotate(-90)" fill="#333333"/>
<ellipse cx="2.11543" cy="2.11249" rx="2.11543" ry="2.11249" transform="translate(648.19 256.706) rotate(-90)" fill="#333333"/>
<ellipse cx="2.11543" cy="2.11249" rx="2.11543" ry="2.11249" transform="translate(648.19 246.688) rotate(-90)" fill="#333333"/>
<ellipse cx="2.11543" cy="2.11249" rx="2.11543" ry="2.11249" transform="translate(648.19 236.669) rotate(-90)" fill="#333333"/>
<ellipse cx="2.11543" cy="2.11249" rx="2.11543" ry="2.11249" transform="translate(657.88 256.706) rotate(-90)" fill="#333333"/>
<ellipse cx="2.11543" cy="2.11249" rx="2.11543" ry="2.11249" transform="translate(657.88 246.688) rotate(-90)" fill="#333333"/>
<ellipse cx="2.11543" cy="2.11249" rx="2.11543" ry="2.11249" transform="translate(657.88 236.669) rotate(-90)" fill="#333333"/>
<ellipse cx="2.11543" cy="2.11249" rx="2.11543" ry="2.11249" transform="translate(667.57 256.706) rotate(-90)" fill="#333333"/>
<ellipse cx="2.11543" cy="2.11249" rx="2.11543" ry="2.11249" transform="translate(667.57 246.688) rotate(-90)" fill="#333333"/>
<ellipse cx="2.11543" cy="2.11249" rx="2.11543" ry="2.11249" transform="translate(667.57 236.669) rotate(-90)" fill="#333333"/>
<ellipse cx="2.11543" cy="2.11249" rx="2.11543" ry="2.11249" transform="translate(648.19 297.183) rotate(-90)" fill="#333333"/>
<ellipse cx="2.11543" cy="2.11249" rx="2.11543" ry="2.11249" transform="translate(648.19 287.164) rotate(-90)" fill="#333333"/>
<ellipse cx="2.11543" cy="2.11249" rx="2.11543" ry="2.11249" transform="translate(657.88 287.164) rotate(-90)" fill="#333333"/>
<rect width="630.224" height="262.798" transform="translate(3.38867 33.811)" fill="white"/>
<path fill-rule="evenodd" clip-rule="evenodd" d="M535.679 6.82534H6.86768V163.808H535.679V6.82534ZM0 0V170.634H542.547V0H0Z" transform="translate(0 129.365)" fill="#333333"/>
<path fill-rule="evenodd" clip-rule="evenodd" d="M96.1475 6.82534H6.86768V187.697H96.1475V6.82534ZM0 0V194.522H103.015V0H0Z" transform="translate(535.682 33.811)" fill="#333333"/>
<path fill-rule="evenodd" clip-rule="evenodd" d="M96.1475 6.82534H6.86768V71.6661H96.1475V6.82534ZM0 0V78.4914H103.015V0H0Z" transform="translate(535.682 221.508)" fill="#333333"/>
<path d="M22.0652 0.914111C25.555 0.914111 28.5809 1.39293 31.1431 2.35057C33.7494 3.26468 35.7593 4.59231 37.1729 6.33348C38.5865 8.07464 39.2933 10.1205 39.2933 12.4711C39.2933 14.8652 38.5644 16.9546 37.1066 18.7393C35.693 20.524 33.7494 21.7428 31.2756 22.3957C34.2353 22.9616 36.5544 24.2892 38.2331 26.3786C39.9559 28.468 40.8173 30.9927 40.8173 33.9527C40.8173 36.5209 40.0884 38.7844 38.6306 40.7432C37.1729 42.6585 35.0967 44.1385 32.402 45.1832C29.7074 46.1843 26.5489 46.6849 22.9266 46.6849H0V0.914111H22.0652ZM21.4026 19.131C23.0812 19.131 24.4064 18.7393 25.3783 17.9557C26.3501 17.1287 26.836 15.9969 26.836 14.5605C26.836 13.1675 26.3501 12.1011 25.3783 11.3611C24.4064 10.5776 23.0812 10.2076 21.4026 10.2511H12.1259V19.131H21.4026ZM21.4026 37.4132C23.5229 37.4132 25.2016 36.9779 26.4385 36.1074C27.6754 35.2368 28.2938 34.018 28.2938 32.4509C28.2938 31.0145 27.6754 29.8827 26.4385 29.0556C25.2016 28.1851 23.5229 27.7715 21.4026 27.8151H12.1259V37.4132H21.4026Z" transform="translate(50.9688 190.673)" fill="#333333"/>
<path d="M69.563 0.195882C74.2897 0.195882 78.5525 1.21882 82.3515 3.26468C86.1947 5.31055 89.1986 8.11817 91.3631 11.6876C93.5719 15.2569 94.6762 19.2616 94.6762 23.7016C94.6762 28.1851 93.5719 32.2333 91.3631 35.8462C89.1986 39.4591 86.1947 42.3102 82.3515 44.3996C78.5525 46.489 74.2897 47.5337 69.563 47.5337C64.8363 47.5337 60.5514 46.5108 56.7082 44.4649C52.9092 42.3755 49.9053 39.5244 47.6966 35.9115C45.532 32.255 44.4498 28.1851 44.4498 23.7016C44.4498 19.2616 45.532 15.2569 47.6966 11.6876C49.9053 8.11817 52.9092 5.31055 56.7082 3.26468C60.5514 1.21882 64.8363 0.195882 69.563 0.195882ZM69.6955 10.3164C67.3984 10.3164 65.256 10.904 63.2681 12.0793C61.3244 13.2546 59.7783 14.8869 58.6298 16.9763C57.4813 19.0222 56.907 21.2857 56.907 23.7669C56.907 26.2915 57.4813 28.5986 58.6298 30.688C59.8225 32.7339 61.3907 34.3662 63.3344 35.585C65.2781 36.7603 67.3984 37.3479 69.6955 37.3479C71.9926 37.3479 74.0909 36.7603 75.9904 35.585C77.9341 34.3662 79.4581 32.7339 80.5625 30.688C81.6668 28.5986 82.219 26.2915 82.219 23.7669C82.219 21.2857 81.6668 19.0222 80.5625 16.9763C79.4581 14.8869 77.9341 13.2546 75.9904 12.0793C74.0909 10.904 71.9926 10.3164 69.6955 10.3164Z" transform="translate(50.9688 190.673)" fill="#333333"/>
<path d="M95.0919 0.914111H134.915V10.7734H121V46.6849H108.874V10.7734H95.0919V0.914111Z" transform="translate(50.9688 190.673)" fill="#333333"/>
<path d="M171.84 14.6911C169.366 13.2546 166.716 12.0793 163.889 11.1652C161.106 10.2511 158.765 9.79404 156.865 9.79404C155.363 9.79404 154.17 10.077 153.287 10.6429C152.448 11.1652 152.028 11.9487 152.028 12.9934C152.028 13.9946 152.403 14.8434 153.154 15.5399C153.905 16.1928 154.833 16.7369 155.937 17.1722C157.042 17.564 158.676 18.0863 160.841 18.7393C164.065 19.6534 166.716 20.5675 168.792 21.4816C170.913 22.3957 172.724 23.8104 174.226 25.7257C175.728 27.5974 176.479 30.0568 176.479 33.1039C176.479 36.1509 175.661 38.7626 174.027 40.9391C172.392 43.072 170.139 44.6826 167.268 45.7708C164.441 46.859 161.282 47.4031 157.793 47.4031C153.949 47.4031 150.106 46.7502 146.263 45.4443C142.464 44.0949 139.173 42.2667 136.39 39.9597L141.095 30.6227C143.436 32.6686 146.197 34.3444 149.377 35.6503C152.602 36.9562 155.451 37.6091 157.925 37.6091C159.736 37.6091 161.15 37.2826 162.166 36.6297C163.226 35.9768 163.756 35.0191 163.756 33.7568C163.756 32.7121 163.359 31.8415 162.564 31.145C161.813 30.4486 160.841 29.9045 159.648 29.5127C158.499 29.0774 156.865 28.5768 154.745 28.0109C151.564 27.1404 148.936 26.2698 146.859 25.3992C144.783 24.4851 142.994 23.1357 141.492 21.351C140.035 19.5228 139.306 17.1069 139.306 14.1034C139.306 11.274 140.057 8.79287 141.559 6.65995C143.105 4.52702 145.269 2.89468 148.052 1.76293C150.879 0.587643 154.148 0 157.859 0C161.216 0 164.529 0.478819 167.798 1.43646C171.067 2.35057 173.938 3.59115 176.412 5.15819L171.84 14.6911Z" transform="translate(50.9688 190.673)" fill="#333333"/>
<path d="M219.427 0.914111C222.917 0.914111 225.943 1.39293 228.505 2.35057C231.111 3.26468 233.121 4.59231 234.535 6.33348C235.948 8.07464 236.655 10.1205 236.655 12.4711C236.655 14.8652 235.926 16.9546 234.468 18.7393C233.055 20.524 231.111 21.7428 228.637 22.3957C231.597 22.9616 233.916 24.2892 235.595 26.3786C237.318 28.468 238.179 30.9927 238.179 33.9527C238.179 36.5209 237.45 38.7844 235.992 40.7432C234.535 42.6585 232.459 44.1385 229.764 45.1832C227.069 46.1843 223.911 46.6849 220.288 46.6849H197.362V0.914111H219.427ZM218.764 19.131C220.443 19.131 221.768 18.7393 222.74 17.9557C223.712 17.1287 224.198 15.9969 224.198 14.5605C224.198 13.1675 223.712 12.1011 222.74 11.3611C221.768 10.5776 220.443 10.2076 218.764 10.2511H209.488V19.131H218.764ZM218.764 37.4132C220.885 37.4132 222.563 36.9779 223.8 36.1074C225.037 35.2368 225.656 34.018 225.656 32.4509C225.656 31.0145 225.037 29.8827 223.8 29.0556C222.563 28.1851 220.885 27.7715 218.764 27.8151H209.488V37.4132H218.764Z" transform="translate(50.9688 190.673)" fill="#333333"/>
<path d="M272.69 46.6849L265.931 34.018H265.666H256.919V46.6849H244.793V0.914111H265.666C271.806 0.914111 276.555 2.3288 279.912 5.15819C283.314 7.94405 285.014 11.8834 285.014 16.9763C285.014 20.4151 284.308 23.3969 282.894 25.9216C281.48 28.4027 279.426 30.3398 276.732 31.7327L286.406 46.6849H272.69ZM256.919 24.4851H265.732C268.206 24.4851 270.105 23.8757 271.431 22.6569C272.8 21.4381 273.485 19.6751 273.485 17.3681C273.485 15.1481 272.8 13.4505 271.431 12.2752C270.105 11.0564 268.206 10.447 265.732 10.447H256.919V24.4851Z" transform="translate(50.9688 190.673)" fill="#333333"/>
<path d="M326.867 46.6849L323.687 38.5885H303.61L300.363 46.6849H287.905L307.85 0.914111H320.308L339.788 46.6849H326.867ZM307.254 29.4474H320.109L313.748 13.124L307.254 29.4474Z" transform="translate(50.9688 190.673)" fill="#333333"/>
<path d="M375.802 14.6911C373.329 13.2546 370.678 12.0793 367.851 11.1652C365.068 10.2511 362.727 9.79404 360.827 9.79404C359.325 9.79404 358.133 10.077 357.249 10.6429C356.41 11.1652 355.99 11.9487 355.99 12.9934C355.99 13.9946 356.366 14.8434 357.116 15.5399C357.867 16.1928 358.795 16.7369 359.899 17.1722C361.004 17.564 362.638 18.0863 364.803 18.7393C368.028 19.6534 370.678 20.5675 372.754 21.4816C374.875 22.3957 376.686 23.8104 378.188 25.7257C379.69 27.5974 380.441 30.0568 380.441 33.1039C380.441 36.1509 379.623 38.7626 377.989 40.9391C376.355 43.072 374.102 44.6826 371.23 45.7708C368.403 46.859 365.245 47.4031 361.755 47.4031C357.912 47.4031 354.068 46.7502 350.225 45.4443C346.426 44.0949 343.135 42.2667 340.352 39.9597L345.057 30.6227C347.398 32.6686 350.159 34.3444 353.34 35.6503C356.564 36.9562 359.414 37.6091 361.887 37.6091C363.698 37.6091 365.112 37.2826 366.128 36.6297C367.188 35.9768 367.718 35.0191 367.718 33.7568C367.718 32.7121 367.321 31.8415 366.526 31.145C365.775 30.4486 364.803 29.9045 363.61 29.5127C362.462 29.0774 360.827 28.5768 358.707 28.0109C355.526 27.1404 352.898 26.2698 350.822 25.3992C348.745 24.4851 346.956 23.1357 345.454 21.351C343.997 19.5228 343.268 17.1069 343.268 14.1034C343.268 11.274 344.019 8.79287 345.521 6.65995C347.067 4.52702 349.231 2.89468 352.014 1.76293C354.841 0.587643 358.11 0 361.821 0C365.178 0 368.491 0.478819 371.76 1.43646C375.029 2.35057 377.901 3.59115 380.374 5.15819L375.802 14.6911Z" transform="translate(50.9688 190.673)" fill="#333333"/>
<path d="M386.635 0.914111H398.761V46.6849H386.635V0.914111Z" transform="translate(50.9688 190.673)" fill="#333333"/>
<path d="M407.795 0.914111H419.921V36.4991H439.601V46.6849H407.795V0.914111Z" transform="translate(50.9688 190.673)" fill="#333333"/>
<path fill-rule="evenodd" clip-rule="evenodd" d="M439.532 6.82534H6.86768V95.5548H439.532V6.82534ZM0 0V102.38H446.399V0H0Z" transform="translate(96.1465 33.811)" fill="#333333"/>
<path fill-rule="evenodd" clip-rule="evenodd" d="M96.1475 6.82534H6.86768V95.5548H96.1475V6.82534ZM0 0V102.38H103.015V0H0Z" transform="translate(0 33.8113)" fill="#333333"/>
<path fill-rule="evenodd" clip-rule="evenodd" d="M33.2818 38.9297L48.0738 47.7774V7.07813L44.3758 3.53907L38.8288 0H7.39596L0 7.07813V31.8516L7.39596 38.9297H33.2818ZM10.165 32.1044H35.1891L41.2061 35.7034V9.98101L40.098 8.92052L36.8141 6.82534H10.165L6.86768 9.98101V28.9487L10.165 32.1044Z" transform="translate(27.4707 61.1125)" fill="#333333"/>
<path d="M12.4648 30.0315C10.1069 30.0315 7.97796 29.5082 6.0779 28.4617C4.20073 27.4151 2.71273 25.9704 1.61391 24.1276C0.537969 22.2847 0 20.2144 0 17.9165C0 15.6187 0.537969 13.5483 1.61391 11.7055C2.71273 9.86262 4.20073 8.41792 6.0779 7.37137C7.97796 6.32482 10.1069 5.80154 12.4648 5.80154C14.2047 5.80154 15.8071 6.08593 17.2722 6.65471C18.7373 7.20074 19.985 8.01978 21.0151 9.11183L19.9163 10.238C17.9933 8.34967 15.5324 7.4055 12.5335 7.4055C10.519 7.4055 8.68762 7.86052 7.03937 8.77056C5.39113 9.68061 4.09772 10.9433 3.15913 12.5586C2.22055 14.1512 1.75126 15.9372 1.75126 17.9165C1.75126 19.8959 2.22055 21.6932 3.15913 23.3085C4.09772 24.9011 5.39113 26.1524 7.03937 27.0625C8.68762 27.9725 10.519 28.4275 12.5335 28.4275C15.5095 28.4275 17.9704 27.472 19.9163 25.5609L21.0151 26.6871C19.985 27.7791 18.7259 28.6096 17.2379 29.1783C15.7728 29.7471 14.1818 30.0315 12.4648 30.0315Z" transform="translate(138.567 70.2529)" fill="#333333"/>
<path d="M46.8778 30.0315C44.5199 30.0315 42.3909 29.5082 40.4909 28.4617C38.5908 27.3924 37.0914 25.9363 35.9925 24.0935C34.9166 22.2506 34.3786 20.1916 34.3786 17.9165C34.3786 15.6414 34.9166 13.5824 35.9925 11.7396C37.0914 9.89674 38.5908 8.45205 40.4909 7.4055C42.3909 6.33619 44.5199 5.80154 46.8778 5.80154C49.2357 5.80154 51.3647 6.32482 53.2648 7.37137C55.1648 8.41792 56.6528 9.86262 57.7288 11.7055C58.8276 13.5483 59.377 15.6187 59.377 17.9165C59.377 20.2144 58.8276 22.2847 57.7288 24.1276C56.6528 25.9704 55.1648 27.4151 53.2648 28.4617C51.3647 29.5082 49.2357 30.0315 46.8778 30.0315ZM46.8778 28.4275C48.8923 28.4275 50.7123 27.9725 52.3376 27.0625C53.963 26.1524 55.245 24.9011 56.1835 23.3085C57.1221 21.6932 57.5914 19.8959 57.5914 17.9165C57.5914 15.9372 57.1221 14.1512 56.1835 12.5586C55.245 10.9433 53.963 9.68061 52.3376 8.77056C50.7123 7.86052 48.8923 7.4055 46.8778 7.4055C44.8633 7.4055 43.0319 7.86052 41.3837 8.77056C39.7583 9.68061 38.4764 10.9433 37.5378 12.5586C36.5992 14.1512 36.1299 15.9372 36.1299 17.9165C36.1299 19.8959 36.5992 21.6932 37.5378 23.3085C38.4764 24.9011 39.7583 26.1524 41.3837 27.0625C43.0319 27.9725 44.8633 28.4275 46.8778 28.4275Z" transform="translate(138.567 70.2529)" fill="#333333"/>
<path d="M95.3256 5.97217V29.8609H93.8833L77.5039 9.11183V29.8609H75.7527V5.97217H77.2292L93.5743 26.7212V5.97217H95.3256Z" transform="translate(138.567 70.2529)" fill="#333333"/>
<path d="M115.772 7.542V17.7459H128.581V19.3157H115.772V29.8609H114.021V5.97217H130.092V7.542H115.772Z" transform="translate(138.567 70.2529)" fill="#333333"/>
<path d="M162.571 28.291V29.8609H145.985V5.97217H162.056V7.542H147.737V16.961H160.545V18.4967H147.737V28.291H162.571Z" transform="translate(138.567 70.2529)" fill="#333333"/>
<path d="M195.946 29.8609L190.211 21.8752C189.364 21.989 188.586 22.0459 187.876 22.0459H181.009V29.8609H179.257V5.97217H187.876C190.898 5.97217 193.268 6.68883 194.984 8.12216C196.701 9.53273 197.56 11.5007 197.56 14.0261C197.56 15.9144 197.068 17.507 196.083 18.8038C195.122 20.0779 193.737 20.9766 191.928 21.4998L197.938 29.8609H195.946ZM187.876 20.5102C190.44 20.5102 192.398 19.9527 193.748 18.8379C195.099 17.7004 195.774 16.0964 195.774 14.0261C195.774 11.9557 195.099 10.3631 193.748 9.24834C192.398 8.11078 190.44 7.542 187.876 7.542H181.009V20.5102H187.876Z" transform="translate(138.567 70.2529)" fill="#333333"/>
<path d="M230.859 28.291V29.8609H214.273V5.97217H230.344V7.542H216.024V16.961H228.833V18.4967H216.024V28.291H230.859ZM225.914 4.02695L222.343 1.05793L218.772 4.02695H217.055L221.381 0H223.304L227.631 4.02695H225.914Z" transform="translate(138.567 70.2529)" fill="#333333"/>
<path d="M267.118 5.97217V29.8609H265.676L249.297 9.11183V29.8609H247.545V5.97217H249.022L265.367 26.7212V5.97217H267.118Z" transform="translate(138.567 70.2529)" fill="#333333"/>
<path d="M295.978 30.0315C293.62 30.0315 291.491 29.5082 289.591 28.4617C287.714 27.4151 286.226 25.9704 285.127 24.1276C284.051 22.2847 283.513 20.2144 283.513 17.9165C283.513 15.6187 284.051 13.5483 285.127 11.7055C286.226 9.86262 287.714 8.41792 289.591 7.37137C291.491 6.32482 293.62 5.80154 295.978 5.80154C297.718 5.80154 299.32 6.08593 300.785 6.65471C302.25 7.20074 303.498 8.01978 304.528 9.11183L303.429 10.238C301.506 8.34967 299.046 7.4055 296.047 7.4055C294.032 7.4055 292.201 7.86052 290.552 8.77056C288.904 9.68061 287.611 10.9433 286.672 12.5586C285.734 14.1512 285.264 15.9372 285.264 17.9165C285.264 19.8959 285.734 21.6932 286.672 23.3085C287.611 24.9011 288.904 26.1524 290.552 27.0625C292.201 27.9725 294.032 28.4275 296.047 28.4275C299.023 28.4275 301.484 27.472 303.429 25.5609L304.528 26.6871C303.498 27.7791 302.239 28.6096 300.751 29.1783C299.286 29.7471 297.695 30.0315 295.978 30.0315Z" transform="translate(138.567 70.2529)" fill="#333333"/>
<path d="M320.695 5.97217H322.447V29.8609H320.695V5.97217Z" transform="translate(138.567 70.2529)" fill="#333333"/>
<path d="M355.993 23.1379H342.051L338.995 29.8609H337.107L348.163 5.97217H349.915L360.972 29.8609H359.083L355.993 23.1379ZM355.34 21.6705L349.022 7.88327L342.738 21.6705H355.34Z" transform="translate(138.567 70.2529)" fill="#333333"/>
<path d="M27.3014 36.2064V38.7337H1.03745V36.7558L17.1999 20.603C19.3112 18.4786 20.7308 16.6656 21.4589 15.1638C22.2233 13.6255 22.6055 12.0505 22.6055 10.4389C22.6055 7.98482 21.7683 6.06187 20.0938 4.67002C18.4557 3.27817 16.0714 2.58225 12.9409 2.58225C10.5383 2.58225 8.42702 2.94852 6.60693 3.68108C4.82324 4.41363 3.27616 5.53077 1.9657 7.03251L0 5.27438C1.45607 3.58951 3.29437 2.28923 5.51488 1.37354C7.77179 0.457846 10.3199 0 13.1593 0C16.9087 0 19.8936 0.915691 22.1141 2.74707C24.3346 4.57845 25.4449 7.05082 25.4449 10.1642C25.4449 12.1421 25.0081 14.0284 24.1344 15.8231C23.2608 17.6179 21.6227 19.7057 19.2202 22.0865L5.13266 36.2064H27.3014Z" transform="translate(605.249 68.6689) rotate(90)" fill="#333333"/>
<path d="M50.0473 39.0084C47.1351 39.0084 44.5324 38.2209 42.2391 36.6459C39.9821 35.0343 38.2167 32.7634 36.9426 29.8332C35.7049 26.903 35.0861 23.46 35.0861 19.5042C35.0861 15.5484 35.7049 12.1054 36.9426 9.17522C38.2167 6.24501 39.9821 3.99241 42.2391 2.41743C44.5324 0.805808 47.1351 0 50.0473 0C52.9594 0 55.5439 0.805808 57.8008 2.41743C60.0942 3.99241 61.8597 6.24501 63.0973 9.17522C64.3714 12.1054 65.0084 15.5484 65.0084 19.5042C65.0084 23.46 64.3714 26.903 63.0973 29.8332C61.8597 32.7634 60.0942 35.0343 57.8008 36.6459C55.5439 38.2209 52.9594 39.0084 50.0473 39.0084ZM50.0473 36.4262C52.4498 36.4262 54.5611 35.7669 56.3812 34.4483C58.2377 33.0931 59.6755 31.1518 60.6948 28.6245C61.7141 26.0606 62.2237 23.0205 62.2237 19.5042C62.2237 15.988 61.7141 12.9662 60.6948 10.4389C59.6755 7.87494 58.2377 5.93368 56.3812 4.61508C54.5611 3.25986 52.4498 2.58225 50.0473 2.58225C47.6447 2.58225 45.5152 3.25986 43.6587 4.61508C41.8386 5.93368 40.419 7.87494 39.3997 10.4389C38.3805 12.9662 37.8708 15.988 37.8708 19.5042C37.8708 23.0205 38.3805 26.0606 39.3997 28.6245C40.419 31.1518 41.8386 33.0931 43.6587 34.4483C45.5152 35.7669 47.6447 36.4262 50.0473 36.4262Z" transform="translate(605.249 68.6689) rotate(90)" fill="#333333"/>
<path d="M83.3127 0.274707V38.7337H80.528V2.80201H71.1909V0.274707H83.3127Z" transform="translate(605.249 68.6689) rotate(90)" fill="#333333"/>
<path d="M116.158 18.6251C118.779 19.3211 120.8 20.4932 122.219 22.1414C123.675 23.7896 124.403 25.8042 124.403 28.185C124.403 31.5547 123.111 34.2102 120.527 36.1515C117.942 38.0561 114.393 39.0084 109.879 39.0084C105.402 39.0084 101.871 38.0561 99.2861 36.1515C96.738 34.2102 95.464 31.5547 95.464 28.185C95.464 25.7675 96.1556 23.753 97.5389 22.1414C98.9585 20.4932 100.979 19.3211 103.6 18.6251C101.416 17.8926 99.7412 16.7938 98.5763 15.3287C97.4115 13.8636 96.829 12.0688 96.829 9.9444C96.829 6.86768 98.0121 4.45026 100.378 2.69213C102.744 0.897377 105.911 0 109.879 0C113.847 0 117.032 0.897377 119.435 2.69213C121.837 4.48688 123.038 6.90431 123.038 9.9444C123.038 12.0322 122.438 13.8269 121.236 15.3287C120.072 16.7938 118.379 17.8926 116.158 18.6251ZM99.6138 9.99934C99.6138 12.3069 100.506 14.1383 102.289 15.4935C104.109 16.8487 106.639 17.5263 109.879 17.5263C113.119 17.5263 115.649 16.867 117.469 15.5484C119.325 14.1932 120.254 12.3618 120.254 10.0543C120.254 7.71012 119.307 5.86042 117.414 4.5052C115.558 3.11335 113.046 2.41743 109.879 2.41743C106.712 2.41743 104.2 3.09504 102.344 4.45026C100.524 5.80548 99.6138 7.65518 99.6138 9.99934ZM109.879 36.591C113.556 36.591 116.431 35.8401 118.506 34.3384C120.581 32.8367 121.619 30.7855 121.619 28.185C121.619 25.621 120.581 23.5882 118.506 22.0865C116.431 20.5847 113.556 19.8339 109.879 19.8339C106.239 19.8339 103.381 20.5847 101.306 22.0865C99.2679 23.5882 98.2487 25.621 98.2487 28.185C98.2487 30.7855 99.2679 32.8367 101.306 34.3384C103.345 35.8401 106.202 36.591 109.879 36.591Z" transform="translate(605.249 68.6689) rotate(90)" fill="#333333"/>
<path fill-rule="evenodd" clip-rule="evenodd" d="M24.2062 3.42327H0V0H24.2062V3.42327Z" transform="translate(617.158 297.587) scale(1.00309 0.996903) rotate(-45)" fill="#333333"/>
<path fill-rule="evenodd" clip-rule="evenodd" d="M38.7299 3.42327H0V0H38.7299V3.42327Z" transform="translate(606.854 297.587) scale(1.00309 0.996903) rotate(-45)" fill="#333333"/>
<path fill-rule="evenodd" clip-rule="evenodd" d="M53.2536 3.42327H0V0H53.2536V3.42327Z" transform="translate(596.556 297.587) scale(1.00309 0.996903) rotate(-45)" fill="#333333"/>
<path fill-rule="evenodd" clip-rule="evenodd" d="M62.9361 3.42327H0V0H62.9361V3.42327Z" transform="translate(588.194 295.66) scale(1.00309 0.996903) rotate(-45)" fill="#333333"/>
<path fill-rule="evenodd" clip-rule="evenodd" d="M77.4598 3.42327H0V0H77.4598V3.42327Z" transform="translate(577.892 295.66) scale(1.00309 0.996903) rotate(-45)" fill="#333333"/>
<path fill-rule="evenodd" clip-rule="evenodd" d="M91.9835 3.42327H0V0H91.9835V3.42327Z" transform="translate(567.589 295.66) scale(1.00309 0.996903) rotate(-45)" fill="#333333"/>
<path fill-rule="evenodd" clip-rule="evenodd" d="M101.666 3.42327H0V0H101.666V3.42327Z" transform="translate(557.286 295.66) scale(1.00309 0.996903) rotate(-45)" fill="#333333"/>
<path fill-rule="evenodd" clip-rule="evenodd" d="M101.666 3.42327H0V0H101.666V3.42327Z" transform="translate(546.987 295.66) scale(1.00309 0.996903) rotate(-45)" fill="#333333"/>
<path fill-rule="evenodd" clip-rule="evenodd" d="M101.666 3.42327H0V0H101.666V3.42327Z" transform="translate(536.685 295.66) scale(1.00309 0.996903) rotate(-45)" fill="#333333"/>
<path fill-rule="evenodd" clip-rule="evenodd" d="M87.1423 3.42327H0V0H87.1423V3.42327Z" transform="translate(536.685 285.422) scale(1.00309 0.996903) rotate(-45)" fill="#333333"/>
<path fill-rule="evenodd" clip-rule="evenodd" d="M72.6186 3.42327H0V0H72.6186V3.42327Z" transform="translate(536.685 275.183) scale(1.00309 0.996903) rotate(-45)" fill="#333333"/>
<path fill-rule="evenodd" clip-rule="evenodd" d="M58.0949 3.42327H0V0H58.0949V3.42327Z" transform="translate(536.685 264.945) scale(1.00309 0.996903) rotate(-45)" fill="#333333"/>
<path fill-rule="evenodd" clip-rule="evenodd" d="M43.5711 3.42327H0V0H43.5711V3.42327Z" transform="translate(536.685 254.707) scale(1.00309 0.996903) rotate(-45)" fill="#333333"/>
<path fill-rule="evenodd" clip-rule="evenodd" d="M29.0474 3.42327H0V0H29.0474V3.42327Z" transform="translate(536.685 244.469) scale(1.00309 0.996903) rotate(-45)" fill="#333333"/>
<path fill-rule="evenodd" clip-rule="evenodd" d="M9.68248 3.42327H0V0H9.68248V3.42327Z" transform="translate(540.117 230.818) scale(1.00309 0.996903) rotate(-45)" fill="#333333"/>
<ellipse cx="2.11543" cy="2.11249" rx="2.11543" ry="2.11249" transform="translate(648.19 74.7646) rotate(-90)" fill="#333333"/>
<ellipse cx="2.11543" cy="2.11249" rx="2.11543" ry="2.11249" transform="translate(648.19 64.7458) rotate(-90)" fill="#333333"/>
<ellipse cx="2.11543" cy="2.11249" rx="2.11543" ry="2.11249" transform="translate(657.881 74.7637) rotate(-90)" fill="#333333"/>
<ellipse cx="2.11543" cy="2.11249" rx="2.11543" ry="2.11249" transform="translate(657.881 64.7458) rotate(-90)" fill="#333333"/>
<ellipse cx="2.11543" cy="2.11249" rx="2.11543" ry="2.11249" transform="translate(667.569 74.7637) rotate(-90)" fill="#333333"/>
<ellipse cx="2.11543" cy="2.11249" rx="2.11543" ry="2.11249" transform="translate(667.569 64.7458) rotate(-90)" fill="#333333"/>
<ellipse cx="2.11543" cy="2.11249" rx="2.11543" ry="2.11249" transform="translate(648.19 54.7258) rotate(-90)" fill="#333333"/>
<ellipse cx="2.11543" cy="2.11249" rx="2.11543" ry="2.11249" transform="translate(648.19 44.7083) rotate(-90)" fill="#333333"/>
<ellipse cx="2.11543" cy="2.11249" rx="2.11543" ry="2.11249" transform="translate(657.881 54.7258) rotate(-90)" fill="#333333"/>
<ellipse cx="2.11543" cy="2.11249" rx="2.11543" ry="2.11249" transform="translate(657.881 44.7083) rotate(-90)" fill="#333333"/>
<ellipse cx="2.11543" cy="2.11249" rx="2.11543" ry="2.11249" transform="translate(667.569 54.7258) rotate(-90)" fill="#333333"/>
<ellipse cx="2.11543" cy="2.11249" rx="2.11543" ry="2.11249" transform="translate(667.569 44.7083) rotate(-90)" fill="#333333"/>
<ellipse cx="2.11543" cy="2.11249" rx="2.11543" ry="2.11249" transform="translate(648.19 125.26) rotate(-90)" fill="#333333"/>
<ellipse cx="2.11543" cy="2.11249" rx="2.11543" ry="2.11249" transform="translate(648.19 115.241) rotate(-90)" fill="#333333"/>
<ellipse cx="2.11543" cy="2.11249" rx="2.11543" ry="2.11249" transform="translate(657.881 125.259) rotate(-90)" fill="#333333"/>
<ellipse cx="2.11543" cy="2.11249" rx="2.11543" ry="2.11249" transform="translate(657.881 115.241) rotate(-90)" fill="#333333"/>
<ellipse cx="2.11543" cy="2.11249" rx="2.11543" ry="2.11249" transform="translate(667.569 125.259) rotate(-90)" fill="#333333"/>
<ellipse cx="2.11543" cy="2.11249" rx="2.11543" ry="2.11249" transform="translate(667.569 115.241) rotate(-90)" fill="#333333"/>
<ellipse cx="2.11543" cy="2.11249" rx="2.11543" ry="2.11249" transform="translate(648.19 105.221) rotate(-90)" fill="#333333"/>
<ellipse cx="2.11543" cy="2.11249" rx="2.11543" ry="2.11249" transform="translate(648.19 95.2034) rotate(-90)" fill="#333333"/>
<ellipse cx="2.11543" cy="2.11249" rx="2.11543" ry="2.11249" transform="translate(648.19 85.1846) rotate(-90)" fill="#333333"/>
<ellipse cx="2.11543" cy="2.11249" rx="2.11543" ry="2.11249" transform="translate(657.881 105.221) rotate(-90)" fill="#333333"/>
<ellipse cx="2.11543" cy="2.11249" rx="2.11543" ry="2.11249" transform="translate(657.881 95.2034) rotate(-90)" fill="#333333"/>
<ellipse cx="2.11543" cy="2.11249" rx="2.11543" ry="2.11249" transform="translate(657.881 85.1846) rotate(-90)" fill="#333333"/>
<ellipse cx="2.11543" cy="2.11249" rx="2.11543" ry="2.11249" transform="translate(667.569 105.221) rotate(-90)" fill="#333333"/>
<ellipse cx="2.11543" cy="2.11249" rx="2.11543" ry="2.11249" transform="translate(667.569 95.2034) rotate(-90)" fill="#333333"/>
<ellipse cx="2.11543" cy="2.11249" rx="2.11543" ry="2.11249" transform="translate(667.569 85.1846) rotate(-90)" fill="#333333"/>
<ellipse cx="2.11543" cy="2.11249" rx="2.11543" ry="2.11249" transform="translate(648.19 175.754) rotate(-90)" fill="#333333"/>
<ellipse cx="2.11543" cy="2.11249" rx="2.11543" ry="2.11249" transform="translate(648.19 165.736) rotate(-90)" fill="#333333"/>
<ellipse cx="2.11543" cy="2.11249" rx="2.11543" ry="2.11249" transform="translate(657.881 175.754) rotate(-90)" fill="#333333"/>
<ellipse cx="2.11543" cy="2.11249" rx="2.11543" ry="2.11249" transform="translate(657.881 165.736) rotate(-90)" fill="#333333"/>
<ellipse cx="2.11543" cy="2.11249" rx="2.11543" ry="2.11249" transform="translate(667.569 175.754) rotate(-90)" fill="#333333"/>
<ellipse cx="2.11543" cy="2.11249" rx="2.11543" ry="2.11249" transform="translate(667.569 165.736) rotate(-90)" fill="#333333"/>
<ellipse cx="2.11543" cy="2.11249" rx="2.11543" ry="2.11249" transform="translate(648.19 155.716) rotate(-90)" fill="#333333"/>
<ellipse cx="2.11543" cy="2.11249" rx="2.11543" ry="2.11249" transform="translate(648.19 145.698) rotate(-90)" fill="#333333"/>
<ellipse cx="2.11543" cy="2.11249" rx="2.11543" ry="2.11249" transform="translate(648.19 135.679) rotate(-90)" fill="#333333"/>
<ellipse cx="2.11543" cy="2.11249" rx="2.11543" ry="2.11249" transform="translate(657.881 155.716) rotate(-90)" fill="#333333"/>
<ellipse cx="2.11543" cy="2.11249" rx="2.11543" ry="2.11249" transform="translate(657.881 145.698) rotate(-90)" fill="#333333"/>
<ellipse cx="2.11543" cy="2.11249" rx="2.11543" ry="2.11249" transform="translate(657.881 135.679) rotate(-90)" fill="#333333"/>
<ellipse cx="2.11543" cy="2.11249" rx="2.11543" ry="2.11249" transform="translate(667.569 155.716) rotate(-90)" fill="#333333"/>
<ellipse cx="2.11543" cy="2.11249" rx="2.11543" ry="2.11249" transform="translate(667.569 145.698) rotate(-90)" fill="#333333"/>
<ellipse cx="2.11543" cy="2.11249" rx="2.11543" ry="2.11249" transform="translate(667.569 135.679) rotate(-90)" fill="#333333"/>
<ellipse cx="2.11543" cy="2.11249" rx="2.11543" ry="2.11249" transform="translate(648.19 226.25) rotate(-90)" fill="#333333"/>
<ellipse cx="2.11543" cy="2.11249" rx="2.11543" ry="2.11249" transform="translate(648.19 216.23) rotate(-90)" fill="#333333"/>
<ellipse cx="2.11543" cy="2.11249" rx="2.11543" ry="2.11249" transform="translate(657.881 226.249) rotate(-90)" fill="#333333"/>
<ellipse cx="2.11543" cy="2.11249" rx="2.11543" ry="2.11249" transform="translate(657.881 216.23) rotate(-90)" fill="#333333"/>
<ellipse cx="2.11543" cy="2.11249" rx="2.11543" ry="2.11249" transform="translate(667.569 226.249) rotate(-90)" fill="#333333"/>
<ellipse cx="2.11543" cy="2.11249" rx="2.11543" ry="2.11249" transform="translate(667.569 216.23) rotate(-90)" fill="#333333"/>
<ellipse cx="2.11543" cy="2.11249" rx="2.11543" ry="2.11249" transform="translate(648.19 206.211) rotate(-90)" fill="#333333"/>
<ellipse cx="2.11543" cy="2.11249" rx="2.11543" ry="2.11249" transform="translate(648.19 196.193) rotate(-90)" fill="#333333"/>
<ellipse cx="2.11543" cy="2.11249" rx="2.11543" ry="2.11249" transform="translate(648.19 186.174) rotate(-90)" fill="#333333"/>
<ellipse cx="2.11543" cy="2.11249" rx="2.11543" ry="2.11249" transform="translate(657.881 206.211) rotate(-90)" fill="#333333"/>
<ellipse cx="2.11543" cy="2.11249" rx="2.11543" ry="2.11249" transform="translate(657.881 196.193) rotate(-90)" fill="#333333"/>
<ellipse cx="2.11543" cy="2.11249" rx="2.11543" ry="2.11249" transform="translate(657.881 186.174) rotate(-90)" fill="#333333"/>
<ellipse cx="2.11543" cy="2.11249" rx="2.11543" ry="2.11249" transform="translate(667.569 206.211) rotate(-90)" fill="#333333"/>
<ellipse cx="2.11543" cy="2.11249" rx="2.11543" ry="2.11249" transform="translate(667.569 196.193) rotate(-90)" fill="#333333"/>
<ellipse cx="2.11543" cy="2.11249" rx="2.11543" ry="2.11249" transform="translate(667.569 186.174) rotate(-90)" fill="#333333"/>
<path d="M65.2485 36.8V62H61.6845V39.932H55.9965V36.8H65.2485ZM97.4007 36.8V39.248L87.2127 62H83.3967L93.3687 39.932H81.8487V44.432H78.3927V36.8H97.4007ZM150.508 36.8V62H147.556L132.436 43.208V62H128.836V36.8H131.788L146.908 55.592V36.8H150.508ZM177.707 62.288C175.163 62.288 172.871 61.736 170.831 60.632C168.791 59.504 167.183 57.956 166.007 55.988C164.855 54.02 164.279 51.824 164.279 49.4C164.279 46.976 164.855 44.78 166.007 42.812C167.183 40.844 168.791 39.308 170.831 38.204C172.871 37.076 175.163 36.512 177.707 36.512C180.227 36.512 182.507 37.076 184.547 38.204C186.587 39.308 188.183 40.844 189.335 42.812C190.487 44.756 191.063 46.952 191.063 49.4C191.063 51.848 190.487 54.056 189.335 56.024C188.183 57.968 186.587 59.504 184.547 60.632C182.507 61.736 180.227 62.288 177.707 62.288ZM177.707 59.084C179.555 59.084 181.211 58.664 182.675 57.824C184.163 56.984 185.327 55.832 186.167 54.368C187.031 52.88 187.463 51.224 187.463 49.4C187.463 47.576 187.031 45.932 186.167 44.468C185.327 42.98 184.163 41.816 182.675 40.976C181.211 40.136 179.555 39.716 177.707 39.716C175.859 39.716 174.179 40.136 172.667 40.976C171.179 41.816 170.003 42.98 169.139 44.468C168.299 45.932 167.879 47.576 167.879 49.4C167.879 51.224 168.299 52.88 169.139 54.368C170.003 55.832 171.179 56.984 172.667 57.824C174.179 58.664 175.859 59.084 177.707 59.084ZM225.925 36.8L214.873 62H211.309L200.221 36.8H204.109L213.181 57.5L222.325 36.8H225.925ZM257.766 55.376C256.854 55.376 256.074 55.064 255.426 54.44C254.802 53.816 254.49 53.024 254.49 52.064C254.49 51.152 254.814 50.384 255.462 49.76C256.11 49.112 256.878 48.788 257.766 48.788C258.654 48.788 259.41 49.112 260.034 49.76C260.682 50.384 261.006 51.152 261.006 52.064C261.006 53.024 260.682 53.816 260.034 54.44C259.41 55.064 258.654 55.376 257.766 55.376ZM300.786 62.288C298.89 62.288 297.054 62 295.278 61.424C293.526 60.824 292.146 60.056 291.138 59.12L292.47 56.312C293.43 57.176 294.654 57.884 296.142 58.436C297.654 58.964 299.202 59.228 300.786 59.228C302.874 59.228 304.434 58.88 305.466 58.184C306.498 57.464 307.014 56.516 307.014 55.34C307.014 54.476 306.726 53.78 306.15 53.252C305.598 52.7 304.902 52.28 304.062 51.992C303.246 51.704 302.082 51.38 300.57 51.02C298.674 50.564 297.138 50.108 295.962 49.652C294.81 49.196 293.814 48.5 292.974 47.564C292.158 46.604 291.75 45.32 291.75 43.712C291.75 42.368 292.098 41.156 292.794 40.076C293.514 38.996 294.594 38.132 296.034 37.484C297.474 36.836 299.262 36.512 301.398 36.512C302.886 36.512 304.35 36.704 305.79 37.088C307.23 37.472 308.466 38.024 309.498 38.744L308.31 41.624C307.254 40.952 306.126 40.448 304.926 40.112C303.726 39.752 302.55 39.572 301.398 39.572C299.358 39.572 297.822 39.944 296.79 40.688C295.782 41.432 295.278 42.392 295.278 43.568C295.278 44.432 295.566 45.14 296.142 45.692C296.718 46.22 297.426 46.64 298.266 46.952C299.13 47.24 300.294 47.552 301.758 47.888C303.654 48.344 305.178 48.8 306.33 49.256C307.482 49.712 308.466 50.408 309.282 51.344C310.122 52.28 310.542 53.54 310.542 55.124C310.542 56.444 310.182 57.656 309.462 58.76C308.742 59.84 307.65 60.704 306.186 61.352C304.722 61.976 302.922 62.288 300.786 62.288ZM340.137 55.7H326.745L323.973 62H320.265L331.677 36.8H335.241L346.689 62H342.909L340.137 55.7ZM338.877 52.82L333.441 40.472L328.005 52.82H338.877ZM335.997 34.64C335.421 34.64 334.917 34.52 334.485 34.28C334.077 34.04 333.561 33.68 332.937 33.2C332.577 32.864 332.265 32.624 332.001 32.48C331.737 32.312 331.473 32.228 331.209 32.228C330.681 32.228 330.249 32.432 329.913 32.84C329.577 33.224 329.397 33.764 329.373 34.46H327.429C327.477 33.116 327.813 32.048 328.437 31.256C329.085 30.464 329.925 30.068 330.957 30.068C331.533 30.068 332.037 30.2 332.469 30.464C332.925 30.704 333.441 31.064 334.017 31.544C334.425 31.88 334.749 32.132 334.989 32.3C335.229 32.444 335.481 32.516 335.745 32.516C336.273 32.516 336.705 32.324 337.041 31.94C337.377 31.556 337.557 31.028 337.581 30.356H339.525C339.477 31.652 339.129 32.696 338.481 33.488C337.857 34.256 337.029 34.64 335.997 34.64ZM369.753 62.288C367.209 62.288 364.917 61.736 362.877 60.632C360.837 59.504 359.229 57.956 358.053 55.988C356.901 54.02 356.325 51.824 356.325 49.4C356.325 46.976 356.901 44.78 358.053 42.812C359.229 40.844 360.837 39.308 362.877 38.204C364.917 37.076 367.209 36.512 369.753 36.512C372.273 36.512 374.553 37.076 376.593 38.204C378.633 39.308 380.229 40.844 381.381 42.812C382.533 44.756 383.109 46.952 383.109 49.4C383.109 51.848 382.533 54.056 381.381 56.024C380.229 57.968 378.633 59.504 376.593 60.632C374.553 61.736 372.273 62.288 369.753 62.288ZM369.753 59.084C371.601 59.084 373.257 58.664 374.721 57.824C376.209 56.984 377.373 55.832 378.213 54.368C379.077 52.88 379.509 51.224 379.509 49.4C379.509 47.576 379.077 45.932 378.213 44.468C377.373 42.98 376.209 41.816 374.721 40.976C373.257 40.136 371.601 39.716 369.753 39.716C367.905 39.716 366.225 40.136 364.713 40.976C363.225 41.816 362.049 42.98 361.185 44.468C360.345 45.932 359.925 47.576 359.925 49.4C359.925 51.224 360.345 52.88 361.185 54.368C362.049 55.832 363.225 56.984 364.713 57.824C366.225 58.664 367.905 59.084 369.753 59.084ZM424.667 36.8C427.931 36.8 430.499 37.58 432.371 39.14C434.243 40.7 435.179 42.848 435.179 45.584C435.179 48.32 434.243 50.468 432.371 52.028C430.499 53.588 427.931 54.368 424.667 54.368H418.439V62H414.839V36.8H424.667ZM424.559 51.236C426.839 51.236 428.579 50.756 429.779 49.796C430.979 48.812 431.579 47.408 431.579 45.584C431.579 43.76 430.979 42.368 429.779 41.408C428.579 40.424 426.839 39.932 424.559 39.932H418.439V51.236H424.559ZM463.539 55.7H450.147L447.375 62H443.667L455.079 36.8H458.643L470.091 62H466.311L463.539 55.7ZM462.279 52.82L456.843 40.472L451.407 52.82H462.279ZM492.043 62.288C488.683 62.288 486.067 61.328 484.195 59.408C482.323 57.488 481.387 54.728 481.387 51.128V36.8H484.987V50.984C484.987 56.384 487.351 59.084 492.079 59.084C494.383 59.084 496.147 58.424 497.371 57.104C498.595 55.76 499.207 53.72 499.207 50.984V36.8H502.699V51.128C502.699 54.752 501.763 57.524 499.891 59.444C498.019 61.34 495.403 62.288 492.043 62.288ZM518.359 36.8H521.959V58.868H535.603V62H518.359V36.8ZM558.933 62.288C556.389 62.288 554.097 61.736 552.057 60.632C550.017 59.504 548.409 57.956 547.233 55.988C546.081 54.02 545.505 51.824 545.505 49.4C545.505 46.976 546.081 44.78 547.233 42.812C548.409 40.844 550.017 39.308 552.057 38.204C554.097 37.076 556.389 36.512 558.933 36.512C561.453 36.512 563.733 37.076 565.773 38.204C567.813 39.308 569.409 40.844 570.561 42.812C571.713 44.756 572.289 46.952 572.289 49.4C572.289 51.848 571.713 54.056 570.561 56.024C569.409 57.968 567.813 59.504 565.773 60.632C563.733 61.736 561.453 62.288 558.933 62.288ZM558.933 59.084C560.781 59.084 562.437 58.664 563.901 57.824C565.389 56.984 566.553 55.832 567.393 54.368C568.257 52.88 568.689 51.224 568.689 49.4C568.689 47.576 568.257 45.932 567.393 44.468C566.553 42.98 565.389 41.816 563.901 40.976C562.437 40.136 560.781 39.716 558.933 39.716C557.085 39.716 555.405 40.136 553.893 40.976C552.405 41.816 551.229 42.98 550.365 44.468C549.525 45.932 549.105 47.576 549.105 49.4C549.105 51.224 549.525 52.88 550.365 54.368C551.229 55.832 552.405 56.984 553.893 57.824C555.405 58.664 557.085 59.084 558.933 59.084Z" transform="translate(0 295)" fill="#333333"/>
</svg>
