<?xml version="1.0" standalone="no"?>
<!DOCTYPE svg PUBLIC "-//W3C//DTD SVG 20010904//EN"
 "http://www.w3.org/TR/2001/REC-SVG-20010904/DTD/svg10.dtd">
<svg version="1.0" xmlns="http://www.w3.org/2000/svg"
 width="700.000000pt" height="700.000000pt" viewBox="0 0 700.000000 700.000000"
 preserveAspectRatio="xMidYMid meet">
<metadata>
Created by potrace 1.11, written by Peter Selinger 2001-2013
</metadata>
<g transform="translate(0.000000,700.000000) scale(0.100000,-0.100000)"
fill="#000000" stroke="none">
<path d="M945 6874 c-71 -69 -168 -162 -215 -206 -47 -44 -170 -162 -274 -262
-104 -99 -209 -201 -235 -225 -25 -24 -85 -82 -133 -128 l-88 -85 0 -1802 0
-1803 177 -171 c300 -287 314 -300 463 -442 157 -150 267 -255 371 -356 l67
-64 1885 0 1886 0 193 -115 c106 -63 200 -119 208 -124 8 -5 122 -74 254 -153
131 -78 250 -150 265 -158 14 -9 295 -176 623 -373 328 -196 599 -357 602
-357 4 0 6 1332 6 2960 l0 2959 -23 23 c-13 13 -104 100 -203 194 -98 94 -208
199 -244 233 -36 35 -83 74 -105 88 -22 15 -74 48 -115 74 -41 27 -80 53 -87
59 -7 5 -14 10 -17 10 -3 0 -128 79 -279 175 l-274 175 -2289 0 -2289 0 -130
-126z m4535 -943 c63 -41 138 -88 165 -106 167 -106 206 -135 276 -203 l79
-75 0 -1868 c0 -1028 -4 -1869 -8 -1869 -7 0 -281 161 -392 230 -22 13 -337
203 -358 215 -9 6 -39 24 -67 40 l-50 30 -1823 0 -1822 0 -163 156 c-89 86
-197 189 -240 229 l-77 73 0 1382 0 1382 163 155 c89 86 197 189 240 230 l79
74 1941 -1 1942 0 115 -74z"/>
</g>
</svg>
